<svg width="24" height="25" viewBox="0 0 24 25" fill="none" xmlns="http://www.w3.org/2000/svg">
<g clip-path="url(#clip0_16_430)">
<path d="M12 2.52002C6.48 2.52002 2 7.00002 2 12.52C2 18.04 6.48 22.52 12 22.52C17.52 22.52 22 18.04 22 12.52C22 7.00002 17.52 2.52002 12 2.52002ZM12 5.52002C13.66 5.52002 15 6.86002 15 8.52002C15 10.18 13.66 11.52 12 11.52C10.34 11.52 9 10.18 9 8.52002C9 6.86002 10.34 5.52002 12 5.52002ZM12 19.72C9.5 19.72 7.29 18.44 6 16.5C6.03 14.51 10 13.42 12 13.42C13.99 13.42 17.97 14.51 18 16.5C16.71 18.44 14.5 19.72 12 19.72Z" fill="#6E82A5"/>
</g>
<defs>
<clipPath id="clip0_16_430">
<rect width="24" height="24" fill="white" transform="translate(0 0.52002)"/>
</clipPath>
</defs>
</svg>
