<svg width="24" height="25" viewBox="0 0 24 25" fill="none" xmlns="http://www.w3.org/2000/svg">
<g clip-path="url(#clip0_16_39)">
<path d="M18 8.02002H17V6.02002C17 3.26002 14.76 1.02002 12 1.02002C9.24 1.02002 7 3.26002 7 6.02002V8.02002H6C4.9 8.02002 4 8.92002 4 10.02V20.02C4 21.12 4.9 22.02 6 22.02H18C19.1 22.02 20 21.12 20 20.02V10.02C20 8.92002 19.1 8.02002 18 8.02002ZM12 17.02C10.9 17.02 10 16.12 10 15.02C10 13.92 10.9 13.02 12 13.02C13.1 13.02 14 13.92 14 15.02C14 16.12 13.1 17.02 12 17.02ZM9 8.02002V6.02002C9 4.36002 10.34 3.02002 12 3.02002C13.66 3.02002 15 4.36002 15 6.02002V8.02002H9Z" fill="#6E82A5"/>
</g>
<defs>
<clipPath id="clip0_16_39">
<rect width="24" height="24" fill="white" transform="translate(0 0.0200195)"/>
</clipPath>
</defs>
</svg>
