<svg width="124.000000pt" height="120.000000pt" viewBox="0 0 124.000000 120.000000" xmlns="http://www.w3.org/2000/svg">
  <g transform="translate(0.000000,120.000000) scale(0.100000,-0.100000)" fill="#fefefd" stroke="none">
    <path d="M0 600 l0 -600 620 0 620 0 0 600 0 600 -620 0 -620 0 0 -600z m832
491 c35 -6 83 -15 108 -19 l45 -8 3 -20 c2 -11 -6 -31 -18 -44 l-20 -23 -1
-46 c0 -25 0 -125 1 -221 l1 -175 -16 -59 c-31 -118 -123 -231 -242 -298 l-53
-30 0 -15 0 -15 28 6 c15 4 43 15 62 25 19 9 61 26 93 36 l57 19 0 27 c0 15 9
37 19 50 l19 24 45 -2 c46 -1 87 -17 87 -32 0 -14 -70 -87 -70 -73 0 23 -30
12 -45 -18 l-16 -30 -27 0 c-15 0 -36 -6 -47 -13 -36 -24 -183 -67 -229 -67
-44 0 -73 9 -178 51 -26 10 -58 19 -72 19 l-25 0 -15 22 c-9 12 -30 27 -48 32
l-33 11 -10 33 c-5 17 -13 32 -18 32 -6 0 2 9 16 20 25 20 63 25 102 14 l21
-5 15 -52 15 -51 25 -6 c13 -4 50 -19 82 -34 32 -14 64 -26 72 -26 25 0 17 24
-12 37 -16 7 -42 22 -60 32 l-31 20 10 40 10 40 28 6 c32 7 67 0 133 -28 26
-11 50 -17 53 -14 3 2 -2 28 -12 56 l-16 51 6 35 c4 19 18 48 31 64 14 16 25
33 25 38 0 4 14 14 30 21 17 8 30 21 30 29 l0 15 -22 -5 c-13 -3 -47 -14 -75
-24 l-53 -17 0 -18 c0 -20 -16 -25 -22 -6 l-4 12 -32 -13 c-18 -7 -32 -19 -32
-26 l0 -13 -18 5 -18 4 -47 -51 -47 -52 0 -55 0 -56 -25 27 c-14 15 -25 31
-25 37 0 5 -4 9 -8 9 -13 0 -58 88 -72 140 l-13 45 -1 241 -1 240 -17 18 c-19
18 -23 41 -10 50 4 2 43 10 87 16 44 7 98 15 120 19 62 10 306 5 377 -8z
m-192 -635 c0 -3 -4 -8 -10 -11 -5 -3 -10 -1 -10 4 0 6 5 11 10 11 6 0 10 -2
10 -4z" />
  </g>
  <g transform="translate(0.000000,120.000000) scale(0.100000,-0.100000)" fill="#6f6f42" stroke="none">
    <path d="M514 1109 l-6 -11 -34 7 -34 6 -1 -23 -1 -23 -5 18 -4 17 -30 0 c-16
0 -29 -5 -29 -11 0 -6 -7 -17 -15 -25 l-15 -15 0 21 0 22 -22 -7 c-13 -4 -36
-9 -51 -12 -16 -3 -31 -11 -34 -19 -2 -7 7 -30 21 -51 l26 -38 0 -48 0 -49 23
7 c12 4 41 12 65 18 23 5 42 16 42 23 0 6 7 14 15 18 l15 5 0 -16 0 -16 46 7
c26 3 55 6 65 6 l19 0 0 14 c0 8 -6 16 -12 19 l-13 4 9 9 9 9 4 -12 5 -13 44
0 44 0 0 -13 0 -13 73 -12 c151 -25 197 -35 197 -44 l0 -10 -39 7 -39 6 -6
-10 -7 -10 -80 5 -79 5 -7 -16 -6 -16 32 -33 31 -32 0 -22 c0 -12 5 -22 10
-22 6 0 10 -7 10 -15 0 -8 -4 -15 -10 -15 -5 0 -12 -16 -16 -36 -4 -19 -13
-38 -20 -41 -8 -3 -14 -11 -14 -19 l0 -14 25 0 c14 0 25 -4 25 -9 l0 -10 98 4
c53 2 100 4 105 4 4 1 7 12 7 26 l0 24 -36 7 -36 7 -23 -11 -23 -11 -5 20 -5
19 -21 0 c-25 0 -27 13 -5 35 9 8 13 22 10 30 l-5 15 19 10 c11 6 20 17 20 25
l0 15 -18 0 c-11 0 -27 8 -36 19 l-17 19 14 5 c8 3 20 1 28 -4 8 -5 31 -7 52
-3 l37 6 0 -11 c0 -6 -9 -11 -20 -11 l-20 0 0 -16 0 -16 30 -11 c35 -13 39
-27 10 -34 -11 -3 -20 -11 -20 -17 0 -16 42 -56 58 -56 l12 0 1 103 c0 56 2
113 5 126 2 14 0 27 -6 31 l-11 7 16 29 c8 16 15 35 15 42 0 6 4 12 9 12 13 0
23 34 16 52 l-6 16 -37 6 -36 5 -8 -12 -8 -12 0 18 0 17 -15 0 c-8 0 -15 -4
-15 -9 l0 -9 -35 9 c-19 6 -40 7 -45 4 -6 -3 -10 -1 -10 4 0 6 -13 11 -29 11
-17 0 -33 5 -36 10 -3 6 -13 10 -21 10 l-14 0 0 -22 c0 -13 -4 -30 -10 -38
l-9 -14 -10 27 c-6 16 -11 32 -11 37 0 5 -18 8 -41 8 l-41 0 5 -19 c3 -11 2
-19 -3 -19 -4 0 -10 9 -13 20 -6 22 -22 26 -33 9z m-21 -55 l17 -6 0 -29 0
-29 18 0 17 0 -15 -10 -15 -9 -8 14 c-4 8 -17 15 -29 15 l-20 0 6 27 7 26 -13
9 -13 10 15 -6 c8 -3 23 -9 33 -12z m128 -61 l-10 -18 0 45 1 45 9 -27 10 -27
-10 -18z m149 31 c0 -13 -4 -24 -9 -24 -5 0 -17 -7 -25 -16 l-16 -15 0 14 c0
8 3 28 6 45 l6 30 19 -5 19 -5 0 -24z m-457 -44 l5 -20 -9 6 c-5 3 -9 12 -9
20 0 20 7 17 13 -6z m127 6 c0 -8 -6 -16 -14 -19 l-14 -6 -5 20 -5 19 19 0 19
0 0 -14z m404 8 c22 -8 20 -21 -4 -27 l-20 -5 0 19 c0 21 1 22 24 13z m76 -44
c0 -5 -7 -7 -15 -4 -8 4 -15 8 -15 10 0 2 7 4 15 4 8 0 15 -4 15 -10z" />
    <path d="M308 863 l-18 -4 -10 -39 -10 -38 9 -26 10 -25 -9 -6 c-6 -4 -10 -24
-10 -46 l0 -39 15 0 15 0 0 19 0 19 20 5 20 5 0 20 c0 11 -7 22 -15 26 -21 8
-19 26 4 26 l20 0 6 21 c8 23 8 22 -20 37 l-20 11 28 1 27 0 0 -11 0 -11 20 6
c11 3 30 9 43 13 l22 6 -14 -16 c-7 -9 -22 -17 -32 -17 -11 0 -19 -3 -19 -7 0
-5 -3 -19 -7 -32 l-6 -24 26 7 27 6 0 -20 0 -20 -20 12 -21 13 -9 -15 c-5 -8
-10 -20 -10 -27 l0 -12 30 1 c38 1 52 -11 22 -19 l-22 -5 0 -19 c0 -27 23 -24
54 7 26 27 34 54 16 54 -5 0 -10 11 -10 25 l0 26 23 22 c12 12 36 27 52 32
l30 10 0 20 0 20 -47 -1 c-27 0 -48 3 -48 8 0 12 -25 10 -56 -7 l-29 -14 -8
14 c-8 15 -34 17 -69 8z" />
    <path d="M580 720 c0 -11 6 -20 13 -20 29 0 57 13 57 26 l0 14 -35 0 -35 0 0
-20z" />
    <path d="M820 685 c0 -8 7 -15 15 -15 8 0 15 7 15 15 0 8 -7 15 -15 15 -8 0
-15 -7 -15 -15z" />
    <path d="M288 633 l-18 -4 0 -31 0 -30 24 6 24 6 4 -11 4 -11 42 13 42 12 0
13 c0 7 -10 20 -22 28 -21 15 -63 19 -100 9z" />
    <path d="M543 425 c-8 -22 6 -33 17 -15 13 20 12 30 0 30 -6 0 -13 -7 -17 -15z" />
    <path d="M258 308 l-28 -10 0 -34 0 -34 10 0 c6 0 21 11 33 24 12 13 32 26 45
30 12 4 22 14 22 22 l0 14 -27 -1 c-16 0 -40 -5 -55 -11z" />
    <path d="M923 303 c-13 -2 -23 -11 -23 -19 l0 -14 19 0 c11 0 21 -5 23 -10 2
-6 23 -12 48 -13 l45 -2 3 24 4 24 -14 8 c-13 9 -65 10 -105 2z" />
    <path d="M843 203 l-21 -4 -11 -31 c-14 -41 -14 -48 4 -48 8 0 15 5 15 10 0 6
7 10 15 10 l15 0 0 20 0 20 20 0 20 0 0 15 0 15 -17 -1 c-10 -1 -28 -4 -40 -6z" />
    <path d="M333 193 c-13 -2 -23 -11 -23 -19 l0 -14 58 -1 c31 0 51 -3 45 -6 -7
-2 -13 -11 -13 -18 l0 -14 35 -7 35 -6 17 13 16 14 4 -12 c3 -7 13 -13 24 -13
l19 0 12 -25 c14 -30 34 -33 41 -5 7 26 27 26 34 -1 l6 -20 31 6 c17 4 39 9
49 12 l18 5 -3 21 -3 22 32 15 c32 15 45 40 20 40 -7 0 -31 -9 -52 -21 -22
-11 -65 -23 -96 -26 l-55 -5 -75 32 c-72 32 -131 43 -176 33z" />
    <path d="M520 85 c0 -8 7 -15 15 -15 8 0 15 7 15 15 0 8 -7 15 -15 15 -8 0
-15 -7 -15 -15z" />
  </g>
  <g transform="translate(0.000000,120.000000) scale(0.100000,-0.100000)" fill="#615931" stroke="none">
    <path d="M465 1094 l-17 -17 5 -18 5 -18 -13 5 -12 5 5 25 4 24 -16 0 -17 0 6
-10 6 -10 -14 6 -14 5 -7 -16 c-3 -9 -2 -14 2 -11 4 2 14 1 22 -5 l15 -9 -32
0 -31 0 5 20 5 20 -15 0 c-9 0 -18 -4 -22 -10 -3 -5 -12 -7 -20 -3 l-15 5 6
-16 c3 -9 9 -14 14 -11 4 2 15 -1 24 -8 l18 -13 -61 1 -61 1 0 -13 c0 -7 6
-14 13 -14 6 -1 19 -2 27 -3 8 -1 21 3 27 7 l13 9 6 -16 c4 -9 4 -20 0 -23 -3
-4 -6 2 -6 12 l0 19 -20 -22 c-21 -22 -28 -48 -10 -37 l10 6 0 -15 c0 -9 5
-16 11 -16 l10 0 -5 23 c-3 12 -3 16 0 9 3 -6 10 -10 15 -6 11 7 11 -7 0 -25
-5 -7 -20 -13 -34 -13 l-26 0 0 -54 c0 -54 12 -71 24 -35 3 10 16 22 28 26
l22 7 -24 7 c-14 3 -26 12 -27 19 -1 7 0 8 3 2 2 -5 9 -10 14 -10 6 0 8 4 5 9
l-5 8 25 -5 25 -5 -5 -12 c-2 -7 1 -18 7 -24 14 -14 64 -15 72 -1 12 19 22 10
17 -15 -2 -14 -11 -25 -18 -25 -19 0 -18 -16 1 -24 8 -3 14 -2 12 2 -1 4 6 18
16 32 l17 25 45 0 c25 0 45 3 45 6 0 4 -7 23 -15 42 -8 20 -23 38 -32 40 l-18
5 28 1 28 1 -5 -9 -6 -9 53 2 52 1 -3 -42 -3 -42 43 0 c24 0 52 0 63 0 65 -2
88 -1 99 7 13 11 86 3 86 -9 0 -5 5 -9 10 -9 6 0 10 9 10 20 0 11 -5 20 -11
20 l-11 0 7 30 7 31 -25 -6 -25 -7 -6 11 -7 11 14 -6 14 -5 6 21 6 22 10 -7
11 -6 0 15 c0 9 -5 16 -12 16 -6 0 -8 3 -4 8 4 4 18 7 29 7 l22 0 -3 20 c-2
11 -4 26 -4 33 -1 6 -8 12 -16 12 l-14 0 12 -15 c7 -8 9 -16 4 -16 -30 -5 -90
-3 -94 3 -3 4 -22 8 -43 10 -35 2 -47 11 -28 22 4 3 11 2 15 -1 3 -4 14 -8 24
-9 9 -1 31 -5 48 -9 l31 -7 7 17 6 17 -25 -4 c-13 -3 -22 -2 -20 2 4 7 -66 20
-107 20 l-19 0 10 -18 10 -19 -14 0 c-8 0 -12 4 -9 9 3 4 1 8 -5 8 -6 0 -8 7
-5 15 l6 15 -15 0 -15 0 3 -27 c1 -16 5 -36 10 -46 4 -10 5 -21 1 -24 -3 -4
-6 2 -6 12 l0 17 -17 -13 -16 -14 6 24 6 25 -12 15 -12 15 11 -7 11 -6 0 14
c0 20 -21 13 -29 -10 l-6 -20 -1 22 -1 23 -34 -3 c-19 -1 -32 -5 -29 -9 2 -5
-3 -8 -12 -8 -9 0 -14 4 -11 8 3 5 -2 9 -10 9 l-16 0 5 -23 c2 -13 0 -21 -4
-18 -5 3 -9 13 -9 23 l0 18 -15 0 -15 0 10 -12 10 -12 -24 -11 c-24 -11 -36
-7 -36 10 0 5 9 7 20 3 l20 -6 -6 15 c-8 21 -28 20 -49 0z m172 -20 c-3 -3
-12 -4 -19 -1 l-13 5 19 1 c11 1 17 -2 13 -5z m-42 -33 c-3 -11 -1 -22 5 -26
l10 -6 0 24 0 25 22 -6 22 -6 -12 -4 c-14 -4 -16 -36 -3 -61 l9 -17 -19 -1
c-10 -1 -18 1 -18 5 3 20 -2 32 -13 30 l-13 -3 -1 33 c-1 17 3 32 8 32 5 0 7
-9 3 -19z m95 4 c0 -8 -7 -15 -15 -15 l-16 0 13 15 c16 18 18 18 18 0z m-130
-5 c0 -5 -5 -10 -11 -10 -5 0 -7 5 -4 10 3 6 8 10 11 10 2 0 4 -4 4 -10z
m-133 -14 c-2 -6 -9 -12 -15 -12 -7 -1 -17 -2 -22 -3 l-11 -1 12 -21 11 -22 8
13 8 13 -1 -26 -2 -25 -16 1 c-9 0 -16 6 -16 12 0 5 -4 26 -7 46 l-8 36 31 0
32 0 -4 -11z m97 -21 c-4 -16 -7 -36 -7 -43 -1 -19 -31 -10 -35 11 l-3 17 15
0 c9 0 16 7 16 15 0 8 -4 15 -10 15 -5 0 -10 4 -10 8 0 4 9 8 20 8 l20 0 -6
-31z m263 13 l-5 -13 -1 19 c-1 11 2 17 5 13 3 -3 4 -12 1 -19z m73 1 c0 -11
-4 -18 -9 -15 -5 4 -12 0 -14 -6 l-5 -13 -1 18 -1 18 -10 -6 c-6 -4 -9 -18 -8
-32 2 -14 -2 -28 -7 -30 l-11 -3 4 40 c2 22 7 38 11 36 4 -3 13 -1 21 5 23 14
30 11 30 -12z m-293 -18 c0 -11 -5 -17 -9 -15 -11 7 -10 34 1 34 6 0 9 -9 8
-19z m112 -28 c1 -7 -3 -13 -7 -13 -5 0 -9 15 -9 33 l-1 32 8 -20 c5 -11 9
-26 9 -32z m41 12 c0 -7 -6 -15 -14 -18 l-14 -6 3 17 c2 9 4 21 4 25 1 13 21
-3 21 -18z m179 7 l9 -18 -17 0 -18 0 5 18 c2 10 6 18 8 18 2 0 8 -8 13 -18z
m-532 -40 l2 -27 -9 20 c-11 24 -13 51 -3 41 4 -4 8 -19 10 -34z m103 28 c0
-5 -4 -10 -10 -10 -5 0 -10 5 -10 10 0 6 5 10 10 10 6 0 10 -4 10 -10z m306
-15 c1 -8 -2 -15 -7 -15 -5 0 -9 10 -9 22 0 23 12 17 16 -7z m-176 11 c0 -3
-4 -8 -10 -11 -5 -3 -10 -1 -10 4 0 6 5 11 10 11 6 0 10 -2 10 -4z m150 -11
l0 -15 -22 1 -23 1 18 5 c9 2 17 9 17 14 0 5 2 9 5 9 3 0 5 -7 5 -15z m-260
-41 l0 -15 -10 6 c-6 4 -8 11 -5 16 9 14 15 11 15 -7z m355 -23 c-3 -6 -14
-11 -23 -11 l-16 0 20 14 c21 15 30 14 19 -3z m69 -16 c-4 -8 -14 -15 -23 -14
l-16 1 13 5 c6 2 10 9 6 14 -3 5 2 9 10 9 l15 0 -5 -15z" />
    <path d="M306 831 c-4 -5 -3 -17 1 -27 l6 -17 -11 7 c-14 8 -15 5 -6 -18 3 -9
11 -16 18 -16 l11 0 2 40 c1 37 -9 52 -21 31z" />
    <path d="M854 829 c-3 -5 3 -9 13 -9 l19 0 11 -30 c13 -34 28 -39 37 -13 l7
17 -15 12 c-9 6 -16 15 -16 20 0 12 -49 14 -56 3z m76 -43 c0 -3 -4 -8 -10
-11 -5 -3 -10 -1 -10 4 0 6 5 11 10 11 6 0 10 -2 10 -4z" />
    <path d="M749 813 c-7 -10 -9 -15 -4 -10 4 4 17 0 27 -10 l18 -16 0 11 c0 17
-12 42 -20 42 -4 0 -14 -8 -21 -17z" />
    <path d="M810 820 c0 -5 7 -10 16 -10 l15 0 -6 10 c-3 6 -10 10 -16 10 -5 0
-9 -4 -9 -10z" />
    <path d="M422 752 c-12 -11 -22 -24 -22 -31 0 -6 11 -11 25 -11 l26 0 5 14 c3
8 2 22 -3 31 l-9 16 -22 -19z" />
    <path d="M288 733 c-10 -2 -18 -12 -18 -20 l0 -16 18 15 c9 9 23 13 30 11 6
-3 12 0 12 6 0 11 -11 12 -42 4z" />
    <path d="M780 725 l-12 -15 16 0 17 0 -6 -10 -6 -10 15 0 c20 0 21 17 2 35
l-14 14 -12 -14z" />
    <path d="M901 726 l-12 -14 10 -6 c5 -4 12 -2 16 4 11 18 25 10 25 -15 0 -14
5 -25 10 -25 15 0 12 39 -4 56 -18 18 -30 18 -45 0z" />
    <path d="M447 693 c-11 -10 -8 -20 6 -20 8 0 14 6 14 14 0 14 -10 17 -20 6z" />
    <path d="M880 685 l0 -15 21 0 21 0 -12 15 c-7 8 -16 15 -21 15 -5 0 -9 -7 -9
-15z" />
    <path d="M293 643 c-31 -6 -29 -28 1 -28 13 0 22 3 19 8 -2 4 5 7 16 7 12 0
21 5 21 10 0 10 -16 11 -57 3z" />
    <path d="M800 646 c0 -2 7 -9 15 -16 l15 -12 0 16 c0 9 -7 16 -15 16 -8 0 -15
-2 -15 -4z" />
    <path d="M850 620 c0 -5 4 -10 9 -10 6 0 13 5 16 10 l6 10 -15 0 c-9 0 -16 -4
-16 -10z" />
    <path d="M905 620 c3 -5 13 -10 21 -10 8 0 14 -7 14 -15 0 -8 5 -15 10 -15 6
0 10 11 10 25 l0 25 -31 0 -30 0 6 -10z" />
    <path d="M284 303 l7 -13 -11 0 c-6 0 -8 -4 -5 -10 l6 -10 -26 10 c-34 13 -35
13 -35 -6 l0 -15 23 6 22 6 -14 -9 -13 -9 10 -7 c14 -8 62 14 62 29 0 7 -8 19
-17 26 l-17 14 8 -12z" />
    <path d="M330 295 c0 -8 7 -15 15 -15 8 0 15 7 15 15 0 8 -7 15 -15 15 -8 0
-15 -7 -15 -15z" />
    <path d="M986 295 l6 -15 -27 0 -26 0 6 10 6 10 -30 0 -31 0 0 -15 c0 -8 5
-15 10 -15 6 0 10 -7 10 -15 0 -8 7 -15 15 -15 8 0 15 7 15 15 0 8 5 15 11 15
5 0 7 -4 4 -10 l-6 -10 20 0 c12 0 21 -4 21 -10 0 -11 40 -14 40 -2 0 4 3 18
7 31 l6 24 -12 -7 c-6 -4 -9 -12 -6 -17 9 -14 -25 -23 -38 -10 l-11 11 15 0
15 0 0 20 c0 11 -6 20 -13 20 l-12 0 5 -15z" />
    <path d="M240 205 c0 -8 7 -15 15 -15 8 0 15 7 15 15 0 8 -7 15 -15 15 -8 0
-15 -7 -15 -15z" />
    <path d="M884 201 c4 -5 0 -11 -6 -14 l-13 -4 11 -13 12 -12 21 7 c25 8 28 30
5 39 -23 9 -36 7 -30 -3z" />
    <path d="M345 192 c-11 -4 -20 -14 -20 -22 l0 -15 35 0 c39 0 63 -12 55 -26
-10 -16 23 -10 40 7 20 20 33 10 15 -12 l-14 -16 15 -9 c17 -11 39 -12 39 -1
0 4 15 6 34 4 l35 -4 -5 -12 -5 -13 16 0 c8 0 15 4 15 9 0 5 19 8 43 7 l42 -1
40 20 40 20 6 -10 7 -10 21 7 21 6 -6 11 -7 11 12 -7 c16 -11 51 3 51 20 0 8
-12 19 -26 24 -14 6 -27 10 -30 10 -2 0 -4 -10 -4 -22 l0 -23 -8 10 c-4 6 -16
11 -26 13 l-19 4 -24 -29 c-14 -15 -21 -22 -17 -14 l7 14 -36 -7 c-20 -4 -48
-13 -63 -21 -27 -14 -49 -11 -39 4 2 5 -15 14 -38 22 -43 13 -55 16 -95 21
l-22 2 4 13 5 13 -14 0 c-7 0 -17 -4 -20 -10 -10 -16 -28 -12 -21 5 l5 15 -12
-1 c-7 -1 -21 -4 -32 -7z m20 -12 c-3 -5 -12 -10 -18 -10 l-12 0 15 10 c19 12
23 12 15 0z m480 -28 c-3 -3 -11 0 -18 7 l-12 12 18 -7 c10 -3 15 -9 12 -12z
m-159 -49 c-10 -10 -19 5 -10 18 l8 13 4 -13 c2 -7 1 -15 -2 -18z" />
  </g>
  <g transform="translate(0.000000,120.000000) scale(0.100000,-0.100000)" fill="#443f1b" stroke="none">
    <path d="M531 1061 l-12 -21 15 0 c20 0 27 13 16 29 l-8 14 -11 -22z" />
    <path d="M567 1059 c6 -22 20 -26 20 -4 0 8 -6 16 -13 19 l-12 5 5 -20z" />
    <path d="M651 1071 c-7 -5 -22 -6 -32 -4 l-19 5 0 -16 c0 -18 25 -22 35 -6 4
6 10 8 15 5 5 -3 12 0 15 6 10 14 2 20 -14 10z" />
    <path d="M680 1071 c0 -5 5 -13 10 -16 6 -3 10 -2 10 4 0 5 -4 13 -10 16 -5 3
-10 2 -10 -4z" />
    <path d="M440 1055 c-17 -21 -9 -27 13 -10 l18 13 -9 6 c-5 3 -15 -1 -22 -9z" />
    <path d="M784 1058 c-7 -12 6 -29 17 -23 5 4 9 1 9 -4 0 -6 7 -11 15 -11 8 0
15 5 15 10 0 6 -7 10 -16 10 l-16 0 5 13 5 14 -14 0 c-8 0 -17 -4 -20 -9z" />
    <path d="M493 1053 c-7 -3 -13 -15 -13 -27 l0 -22 20 -1 c11 -1 22 1 24 5 7
13 -18 49 -31 45z" />
    <path d="M720 1031 l-1 -26 -14 19 c-8 11 -15 15 -15 9 0 -7 5 -15 11 -19 6
-3 9 -17 6 -30 -2 -13 -1 -25 2 -27 3 -2 1 -2 -6 -1 -7 2 -15 -1 -18 -6 l-6
-10 48 1 c26 0 41 3 33 6 -8 3 -18 11 -22 17 -11 16 -10 38 2 31 l10 -6 0 23
c0 13 4 28 9 34 l10 9 -25 1 -24 2 0 -27z" />
    <path d="M324 1039 c-3 -6 -2 -15 4 -21 l10 -10 7 13 8 12 -13 -8 -13 -8 6 16
c7 19 2 23 -9 6z" />
    <path d="M357 1033 c3 -7 6 -13 8 -13 2 0 5 6 8 13 l5 14 -13 0 -13 0 5 -14z" />
    <path d="M393 1030 l-10 -25 10 -6 c5 -4 8 -18 5 -33 l-5 -25 18 10 19 10 0
25 0 25 -9 -6 c-5 -3 -11 7 -13 22 l-4 28 -11 -25z" />
    <path d="M890 1040 c0 -5 5 -10 11 -10 5 0 7 5 4 10 -3 6 -8 10 -11 10 -2 0
-4 -4 -4 -10z" />
    <path d="M931 1027 c-6 -8 -14 -28 -17 -45 -4 -18 -12 -32 -18 -32 -6 -1 1 -8
17 -16 15 -8 27 -17 27 -19 0 -3 -15 -2 -32 1 l-33 6 15 -11 c8 -6 26 -11 39
-11 l23 0 -7 18 c-4 9 -9 27 -11 40 l-5 24 10 -6 10 -6 -2 35 c-1 19 -3 35 -3
35 -1 0 -7 -6 -13 -13z" />
    <path d="M290 1012 c0 -11 -3 -28 -7 -38 l-6 -17 10 6 11 7 6 -23 7 -22 12 24
12 24 -12 4 c-7 3 -10 10 -7 17 3 7 -2 19 -11 26 l-15 12 0 -20z" />
    <path d="M570 1011 c0 -6 4 -13 10 -16 l10 -6 -6 15 c-7 18 -14 21 -14 7z" />
    <path d="M816 994 c-9 -24 -7 -44 4 -44 6 0 10 8 10 18 l0 17 10 -15 c12 -20
23 -6 15 19 -8 25 -30 28 -39 5z" />
    <path d="M509 977 l-24 -10 19 -5 c10 -2 22 1 26 7 l7 12 13 -16 c7 -8 22 -15
34 -16 l21 0 -25 -10 c-14 -6 -45 -12 -70 -15 -85 -10 -95 -12 -110 -17 -14
-5 -69 -15 -112 -19 l-18 -2 0 -24 0 -24 14 11 14 12 136 -3 136 -3 0 13 0 13
-18 -5 -18 -6 0 18 0 17 25 2 c14 0 27 6 29 12 2 6 10 11 18 11 9 0 12 5 9 10
l-6 10 28 0 28 0 -14 -9 -14 -9 6 -17 7 -16 20 6 20 6 -6 -15 -6 -16 11 0 c6
0 11 7 11 15 0 8 5 15 10 15 6 0 10 -7 10 -16 l0 -15 10 6 c6 4 8 10 5 15 -3
4 4 6 15 3 11 -3 20 -9 20 -13 0 -3 22 -6 49 -6 27 1 47 -2 44 -6 -2 -5 -29
-8 -59 -8 l-54 0 0 13 0 12 -8 -12 -8 -12 -42 2 -42 3 0 -11 0 -10 145 3 145
3 0 9 c0 9 -14 14 -70 25 -19 4 -39 10 -44 13 -5 2 -38 7 -75 9 -76 4 -95 9
-86 22 8 14 -24 27 -67 26 l-38 -1 0 11 c0 14 -19 15 -51 2z m-12 -83 c44 -12
11 -24 -59 -23 l-71 2 14 8 c8 4 27 6 42 5 15 -2 27 1 27 5 0 10 16 11 47 3z" />
    <path d="M600 980 c0 -5 7 -10 15 -10 8 0 15 5 15 10 0 6 -7 10 -15 10 -8 0
-15 -4 -15 -10z" />
    <path d="M650 979 c0 -5 5 -7 10 -4 6 3 10 8 10 11 0 2 -4 4 -10 4 -5 0 -10
-5 -10 -11z" />
    <path d="M340 950 c0 -5 0 -13 1 -16 0 -4 -5 -11 -13 -15 -7 -5 -8 -9 -3 -9 6
0 17 5 25 10 l15 10 -12 0 -12 0 5 15 c4 8 3 15 0 15 -3 0 -6 -4 -6 -10z" />
    <path d="M400 933 l-25 -13 35 4 c19 2 42 6 50 9 8 4 31 8 50 10 19 3 8 4 -25
4 -33 0 -71 -7 -85 -14z" />
    <path d="M780 938 c0 -4 8 -8 18 -8 10 0 23 -5 28 -10 l10 -10 20 15 c10 8 15
15 9 14 -5 -1 -12 0 -15 1 -16 6 -70 5 -70 -2z" />
    <path d="M287 909 c7 -7 15 -10 18 -7 3 3 -2 9 -12 12 l-18 7 12 -12z" />
    <path d="M294 829 l1 -26 18 5 c9 2 17 0 17 -6 0 -6 9 -9 20 -7 l20 4 0 -13 0
-13 -27 -1 c-16 0 -33 4 -38 8 l-10 9 -1 -30 -2 -29 14 0 c7 0 16 -5 20 -11
l7 -12 -20 -16 c-12 -9 -24 -26 -28 -39 l-7 -24 24 4 23 3 1 15 c2 35 5 40 19
40 19 0 19 17 0 37 -19 19 -16 24 12 17 l21 -6 -5 -19 -5 -19 16 0 17 0 -7 12
-7 11 11 -7 12 -7 0 15 0 15 14 -5 13 -5 6 14 6 15 -28 -2 -28 -2 5 18 c4 17
17 22 50 21 7 -1 11 1 8 4 -2 3 -1 15 4 28 l9 23 -27 -2 c-15 0 -33 -7 -41
-14 l-14 -13 -7 12 -8 12 -35 -6 -36 -6 -4 12 c-3 7 -4 0 -3 -14z" />
    <path d="M773 829 l-12 -12 16 -23 c18 -29 37 -32 30 -5 l-5 20 14 -6 c21 -8
17 -41 -6 -53 -26 -14 -25 -37 2 -46 l22 -7 3 9 c2 5 8 16 13 24 l9 15 11 -11
10 -10 -17 -20 -18 -20 -35 0 -35 1 -3 -22 -3 -23 19 0 c11 0 23 6 25 13 5 12
11 -26 8 -50 -1 -7 3 -13 9 -13 5 0 13 0 18 0 4 0 7 6 7 12 l0 13 45 3 c24 2
47 5 49 8 9 8 -14 38 -38 50 -12 6 -22 15 -22 19 0 11 35 34 43 29 5 -3 6 5 5
18 -4 23 -8 25 -56 27 -13 0 -21 4 -17 9 8 7 13 8 41 11 l15 1 -12 21 -13 20
-37 -5 -37 -6 -6 10 c-8 13 -28 13 -42 -1z m133 -180 l5 -9 -16 7 -17 6 -9
-14 -9 -14 0 22 0 21 20 -5 c11 -3 23 -9 26 -14z" />
    <path d="M935 800 c-7 -12 2 -30 16 -30 5 0 9 9 9 20 0 21 -15 27 -25 10z" />
    <path d="M395 679 l-6 -19 -20 0 -19 0 2 -25 c2 -24 15 -35 52 -42 l19 -3 -7
31 -6 31 13 -5 c14 -5 32 12 33 33 l1 15 -28 1 -29 1 -5 -18z" />
    <path d="M510 365 c0 -8 4 -15 9 -15 5 0 11 7 15 15 l5 15 -14 0 c-8 0 -15 -7
-15 -15z" />
    <path d="M242 230 l-2 -27 15 0 15 0 0 27 0 27 -13 0 -13 0 -2 -27z" />
    <path d="M847 185 c-4 -8 -2 -17 4 -20 5 -4 7 -11 3 -16 l-6 -10 39 7 c21 4
41 12 45 18 14 20 8 36 -12 36 l-20 0 0 -17 0 -16 -18 16 c-23 21 -28 21 -35
2z" />
    <path d="M787 160 l-17 -20 -24 4 -25 4 6 -14 5 -14 -15 0 c-22 0 -32 -20 -16
-31 19 -12 32 -11 24 1 l-6 10 20 0 c29 0 71 21 64 33 l-6 9 21 -6 21 -7 -12
25 c-7 14 -14 26 -17 26 -3 0 -13 -9 -23 -20z" />
    <path d="M320 159 c0 -12 75 -30 96 -22 l17 6 -8 -13 -8 -13 14 5 c8 3 15 13
17 24 l3 19 -66 1 c-36 1 -65 -2 -65 -7z" />
    <path d="M477 117 l-5 -15 25 -11 c13 -6 29 -9 34 -6 5 4 9 1 9 -4 0 -6 9 -11
21 -11 l21 0 -6 15 c-3 8 -1 15 4 15 6 0 10 -7 10 -15 l0 -15 49 1 49 2 -5 13
-5 14 -37 0 c-35 1 -93 11 -137 25 l-21 7 -6 -15z" />
  </g>
  <g transform="translate(0.000000,120.000000) scale(0.100000,-0.100000)" fill="#f1f2ed" stroke="none">
    <path d="M384 1106 c-10 -8 -24 -12 -30 -9 -7 2 -15 0 -19 -6 l-6 -11 42 3
c24 2 44 8 46 14 6 18 -13 23 -33 9z" />
    <path d="M440 1112 c-5 -2 -10 -15 -10 -28 l0 -24 16 0 15 0 -6 20 -6 20 36 0
36 0 -6 10 c-5 8 -51 10 -75 2z" />
    <path d="M553 1113 c-7 -2 -13 -13 -13 -24 l0 -19 15 0 15 0 0 25 c0 14 -1 25
-2 24 -2 0 -9 -3 -15 -6z" />
    <path d="M580 1110 c0 -5 7 -10 15 -10 8 0 15 5 15 10 0 6 -7 10 -15 10 -8 0
-15 -4 -15 -10z" />
    <path d="M625 1110 c3 -6 13 -10 21 -10 l14 0 0 -20 0 -20 14 0 14 0 4 28 4
29 -39 1 -38 2 6 -10z" />
    <path d="M725 1111 c-6 -11 33 -26 43 -16 4 3 0 10 -8 15 -19 12 -27 12 -35 1z" />
    <path d="M803 1112 c-27 -4 -31 -22 -5 -23 9 -1 36 -3 60 -5 l43 -4 -6 10 c-4
6 -12 9 -18 8 -7 -1 -21 2 -32 8 -11 6 -30 8 -42 6z" />
    <path d="M267 1083 c-16 -3 -31 -11 -34 -19 -7 -20 5 -64 18 -64 l11 0 -7 18
c-12 31 -10 35 23 44 17 5 32 13 32 18 0 6 -3 9 -7 9 -5 -1 -21 -4 -36 -6z" />
    <path d="M920 1080 c0 -6 13 -13 29 -16 35 -7 46 -28 26 -47 -18 -19 -38 -93
-30 -117 l6 -19 15 6 15 6 -10 10 c-15 15 -14 47 2 47 l12 0 -13 8 -12 8 20
24 20 23 0 29 c0 29 -3 32 -52 42 l-28 6 0 -10z" />
    <path d="M256 981 c-3 -5 1 -11 9 -15 l15 -5 0 14 c0 16 -16 20 -24 6z" />
    <path d="M270 925 c0 -8 -4 -15 -8 -15 -4 0 -8 -8 -8 -18 0 -10 6 -19 14 -19
l13 0 -4 19 c-3 10 -1 18 4 18 5 0 9 7 9 15 0 8 -4 15 -10 15 -5 0 -10 -7 -10
-15z" />
    <path d="M265 852 c-12 -8 -14 -62 -3 -62 4 0 3 -11 -2 -24 -11 -29 -6 -74 9
-89 l11 -11 0 97 c0 53 -1 97 -2 97 -2 0 -8 -4 -13 -8z" />
    <path d="M261 626 l-11 -13 15 -13 15 -12 0 26 c0 14 -2 26 -4 26 -2 0 -9 -6
-15 -14z" />
    <path d="M263 554 c-3 -8 -1 -20 6 -27 l11 -11 0 27 c0 30 -7 35 -17 11z" />
    <path d="M693 548 c-38 -12 -45 -31 -9 -22 l24 6 10 -18 9 -17 12 7 c17 11 13
26 -6 26 l-18 0 15 10 c20 13 33 13 25 0 l-6 -10 15 0 c21 0 21 16 0 24 -20 8
-31 7 -71 -6z" />
    <path d="M940 519 l0 -20 10 6 c6 3 10 13 10 21 0 8 -4 14 -10 14 -5 0 -10 -9
-10 -21z" />
    <path d="M574 503 l-32 -16 1 -38 1 -39 -22 -16 c-12 -8 -22 -21 -22 -29 0
-16 -18 -30 -27 -21 -4 3 2 15 12 26 20 22 14 40 -8 22 -8 -7 -18 -8 -22 -4
-5 4 -5 2 -2 -5 4 -6 2 -24 -4 -39 l-10 -28 -7 11 -8 12 -22 -6 c-12 -3 -22
-9 -22 -14 0 -5 -7 -9 -15 -9 -8 0 -15 -7 -15 -15 0 -16 16 -20 24 -6 3 5 15
11 26 14 l20 5 0 -19 0 -18 -15 5 c-8 4 -15 1 -15 -4 0 -22 20 -21 44 1 27 26
37 48 11 27 l-15 -12 0 9 c0 10 43 33 60 33 6 0 10 -4 10 -10 0 -5 -7 -10 -15
-10 -8 0 -15 -4 -15 -10 0 -5 7 -10 15 -10 8 0 15 5 15 11 l0 12 43 -7 42 -7
-11 11 c-6 6 -24 12 -39 13 -16 1 -30 8 -33 16 l-5 14 12 -7 11 -7 0 14 c0 8
6 17 14 20 l14 6 -6 -21 -5 -21 11 7 c7 4 12 14 12 21 l0 14 14 -5 13 -5 7 16
6 16 13 -13 c7 -7 18 -22 25 -33 l11 -20 1 34 c0 19 -3 32 -6 28 -3 -3 -15 3
-26 13 -11 10 -26 16 -33 13 l-14 -5 7 -16 6 -17 -17 14 c-17 13 -24 37 -9 27
4 -2 14 -1 21 4 l14 8 -8 11 -7 12 -16 -13 -17 -13 12 16 c7 9 9 20 5 24 l-7
8 13 -7 12 -7 0 9 c0 6 8 13 17 16 l17 7 -19 -21 -18 -20 16 0 c9 0 19 -9 22
-21 l7 -20 16 13 16 13 -7 -11 c-7 -12 13 -64 26 -64 4 0 7 13 7 28 0 16 7 37
15 48 8 10 14 26 14 34 l0 15 -19 -24 c-11 -13 -20 -29 -20 -37 0 -7 -4 -15
-9 -18 -5 -3 -8 5 -8 19 0 13 6 26 13 29 8 3 14 12 14 20 0 7 7 17 16 20 9 4
14 9 11 13 -4 3 -14 0 -22 -7 l-16 -13 -11 11 c-16 16 -46 14 -84 -5z" />
    <path d="M251 494 l1 -19 5 13 c3 7 2 16 -1 19 -3 4 -6 -2 -5 -13z" />
    <path d="M930 464 l0 -15 10 6 c6 3 10 10 10 16 0 5 -4 9 -10 9 -5 0 -10 -7
-10 -16z" />
    <path d="M962 450 c0 -14 2 -19 5 -12 2 6 2 18 0 25 -3 6 -5 1 -5 -13z" />
    <path d="M280 455 c0 -15 31 -77 36 -72 8 7 -18 77 -28 77 -4 0 -8 -2 -8 -5z" />
    <path d="M480 437 c0 -8 6 -14 13 -14 8 0 14 6 14 14 0 7 -6 13 -14 13 -7 0
-13 -6 -13 -13z" />
    <path d="M900 384 l0 -15 10 6 c6 3 10 10 10 16 0 5 -4 9 -10 9 -5 0 -10 -7
-10 -16z" />
    <path d="M320 362 c0 -5 7 -16 16 -23 l16 -13 -3 18 c-4 20 -29 35 -29 18z" />
    <path d="M600 342 c0 -15 16 -30 40 -38 14 -4 28 -7 32 -6 3 1 9 -5 12 -13 l5
-15 -27 14 c-15 7 -37 17 -49 20 l-23 7 0 -9 c0 -6 12 -13 27 -17 15 -3 30
-10 33 -15 3 -5 18 -12 34 -16 l29 -7 -5 27 -5 26 13 0 c8 0 14 7 14 16 l0 16
-22 -5 c-13 -2 -32 -8 -42 -12 l-19 -8 7 11 7 12 -15 -6 c-9 -3 -16 -2 -16 4
0 5 -7 12 -15 16 -8 3 -15 2 -15 -2z" />
    <path d="M260 334 c0 -5 -14 -18 -30 -29 -28 -18 -41 -45 -22 -45 4 0 12 -14
17 -32 6 -17 15 -33 22 -35 l12 -4 -17 42 -16 41 19 14 c11 8 36 17 57 20 21
4 35 10 33 15 -3 4 -15 6 -27 4 -12 -3 -27 0 -35 6 -7 7 -13 8 -13 3z" />
    <path d="M940 325 c-7 -8 -18 -15 -24 -15 -7 0 -21 -10 -32 -22 l-19 -23 3
-27 3 -28 -11 0 c-18 0 -83 -30 -77 -36 3 -3 28 3 56 13 l51 18 0 20 c0 11 3
30 6 42 l6 23 34 6 c19 3 50 3 69 0 l35 -7 0 -14 c0 -8 -4 -15 -9 -15 -5 0
-12 -13 -16 -30 -4 -17 -11 -30 -16 -30 -5 0 -9 14 -9 30 l0 30 -25 0 -26 0 7
-35 6 -35 -11 0 c-6 0 -11 -7 -11 -15 l0 -15 -20 0 c-11 0 -20 -4 -20 -10 0
-5 7 -10 16 -10 l15 0 -6 -10 c-3 -5 -1 -10 4 -10 6 0 11 7 11 15 0 8 5 15 11
15 5 0 8 4 5 9 -3 4 1 17 9 27 l14 19 1 -12 c0 -24 27 -13 57 22 17 19 32 32
35 29 3 -2 3 7 0 21 -5 28 -23 41 -67 49 -16 3 -31 10 -35 16 l-7 11 -13 -16z" />
    <path d="M473 273 c-7 -2 -13 -12 -13 -20 l0 -15 16 6 c9 3 20 6 25 6 5 0 9 7
9 15 0 15 -14 18 -37 8z" />
    <path d="M266 244 c-10 -26 -7 -34 13 -34 17 0 31 18 31 41 0 16 -38 10 -44
-7z" />
    <path d="M367 246 c-4 -10 -7 -24 -7 -31 l0 -13 62 -21 c34 -12 66 -21 71 -21
5 0 4 7 -3 15 l-13 15 17 -6 16 -6 0 10 c0 10 -23 22 -41 22 -4 0 -6 -6 -3
-14 l5 -14 -35 12 c-20 7 -39 16 -43 21 l-8 8 20 -7 20 -7 -15 13 c-8 7 -19
19 -25 27 l-12 14 -6 -17z" />
    <path d="M780 234 l0 -16 15 12 c8 7 15 14 15 16 0 2 -7 4 -15 4 -8 0 -15 -7
-15 -16z" />
    <path d="M430 230 c0 -5 5 -10 10 -10 6 0 10 5 10 10 0 6 -4 10 -10 10 -5 0
-10 -4 -10 -10z" />
    <path d="M640 215 c0 -8 7 -15 15 -15 8 0 15 7 15 15 0 8 -7 15 -15 15 -8 0
-15 -7 -15 -15z" />
    <path d="M730 200 c0 -5 4 -10 9 -10 6 0 13 5 16 10 l6 10 -15 0 c-9 0 -16 -4
-16 -10z" />
    <path d="M270 190 c0 -5 6 -10 14 -10 7 0 21 -11 30 -25 l16 -25 28 0 c15 0
47 -9 71 -20 24 -11 47 -18 50 -15 8 9 -17 23 -74 41 -70 22 -95 35 -95 51 0
7 -9 13 -20 13 -11 0 -20 -4 -20 -10z" />
    <path d="M734 165 c-10 -8 -14 -15 -7 -15 19 0 43 11 43 21 0 13 -14 11 -36
-6z" />
    <path d="M535 160 l6 -10 -15 6 c-9 3 -16 2 -16 -4 0 -9 51 -32 71 -32 5 0 9
7 9 16 l0 15 -20 -6 -20 -6 6 15 6 16 -17 0 -16 0 6 -10z" />
    <path d="M630 135 c0 -8 6 -15 13 -15 8 0 14 7 14 15 0 8 -6 15 -14 15 -7 0
-13 -7 -13 -15z" />
    <path d="M685 140 l-6 -10 15 0 c9 0 16 5 16 10 0 6 -4 10 -9 10 -6 0 -13 -4
-16 -10z" />
    <path d="M776 115 c-44 -19 -87 -35 -97 -35 -10 0 -21 -5 -25 -11 l-7 -11 34
7 c19 4 56 16 83 26 27 10 53 16 57 13 4 -2 20 7 35 21 l27 25 -14 0 c-8 0
-50 -16 -93 -35z" />
    <path d="M338 113 c7 -3 16 -2 19 1 4 3 -2 6 -13 5 l-19 -1 13 -5z" />
    <path d="M493 87 c0 -7 7 -13 16 -14 9 0 31 -4 50 -8 l34 -8 -7 11 c-4 7 -18
12 -31 12 -13 0 -27 5 -30 10 -9 14 -32 12 -32 -3z" />
    <path d="M498 53 c6 -2 18 -2 25 0 6 3 1 5 -13 5 -14 0 -19 -2 -12 -5z" />
  </g>
  <g transform="translate(0.000000,120.000000) scale(0.100000,-0.100000)" fill="#7a7d5d" stroke="none">
    <path d="M488 1113 l-37 -4 11 -19 12 -19 13 17 12 17 1 -12 c0 -19 14 -16 28
7 7 11 9 19 5 18 -5 -1 -25 -3 -45 -5z" />
    <path d="M560 1099 c0 -10 -5 -21 -10 -24 -6 -4 -7 -11 -4 -17 l7 -11 9 17 9
16 43 0 44 0 6 -16 c6 -16 26 -11 26 7 0 6 -4 8 -9 5 -5 -3 -11 3 -14 14 -5
20 -37 29 -37 10 0 -5 -7 -10 -16 -10 l-16 0 11 13 11 14 -30 0 -30 0 0 -18z
m25 1 c3 -5 1 -10 -4 -10 -6 0 -11 5 -11 10 0 6 2 10 4 10 3 0 8 -4 11 -10z" />
    <path d="M700 1105 c5 -6 7 -15 3 -18 -3 -4 -2 -7 3 -7 6 0 15 5 21 11 l11 11
7 -13 8 -12 -11 7 -12 7 0 -10 c0 -6 7 -11 15 -11 8 0 15 5 15 10 0 6 5 10 11
10 5 0 8 -3 6 -7 -3 -5 -1 -17 4 -28 l8 -20 0 39 1 38 -20 -5 c-11 -3 -20 -2
-20 1 0 4 -14 7 -30 8 l-30 1 10 -12z" />
    <path d="M340 1091 c-51 -7 -73 -18 -65 -32 l6 -9 24 16 23 15 7 -32 7 -32 9
14 c5 8 6 23 4 34 -3 11 -2 14 1 8 3 -7 12 -13 20 -13 l13 0 -5 18 -6 17 16
-19 c9 -11 19 -17 22 -13 7 7 -14 38 -25 36 -3 -1 -26 -5 -51 -8z" />
    <path d="M820 1085 c-7 -9 -10 -19 -6 -22 4 -4 11 -1 17 7 l9 15 10 -15 10
-15 9 15 10 14 -12 8 c-18 12 -33 9 -47 -7z" />
    <path d="M886 1074 c-3 -9 -6 -25 -6 -37 l0 -20 19 19 18 19 -11 7 -11 8 18 0
17 0 0 -15 c0 -19 16 -19 24 0 l5 15 -19 10 c-27 14 -47 12 -54 -6z" />
    <path d="M235 1060 c-4 -6 2 -27 13 -48 21 -42 35 -99 24 -104 -4 -2 -5 -79
-2 -173 l5 -170 95 0 c52 -1 167 -2 255 -3 88 -2 186 -3 218 -2 l59 0 -5 13
c-2 6 -14 11 -26 10 l-22 -3 7 13 8 12 -16 -13 c-19 -15 -76 -23 -84 -11 -3 5
-18 9 -34 9 -15 0 -30 5 -32 12 l-4 12 -36 -10 -35 -11 -104 8 -104 8 -9 -9
-10 -10 -18 17 c-10 9 -21 13 -26 8 -4 -4 -1 -10 6 -12 6 -3 12 -9 12 -14 0
-4 -7 -6 -15 -3 l-15 6 0 -13 0 -14 -9 14 -9 14 -21 -6 -21 -5 2 38 c2 21 6
36 9 34 10 -6 20 26 13 38 l-6 10 -9 -13 -9 -14 0 22 c0 12 5 23 12 25 6 2 12
12 14 21 1 9 -1 15 -6 12 -4 -3 -10 4 -13 15 l-5 20 9 -6 c5 -3 9 2 9 10 0 8
-4 18 -10 21 -12 8 -13 92 -1 99 l9 6 -8 36 c-5 19 -15 43 -24 53 -19 21 -21
35 -3 25 l12 -8 -12 16 c-7 8 -10 18 -6 21 3 4 1 7 -5 7 -6 0 -14 -5 -17 -10z" />
    <path d="M973 1063 c4 -3 3 -11 -2 -17 l-9 -11 16 -15 16 -14 -7 16 -6 17 11
3 12 4 -8 12 c-4 7 -12 12 -18 12 -6 0 -8 -3 -5 -7z" />
    <path d="M810 1033 c0 -6 6 -16 14 -23 8 -6 17 -21 19 -33 l4 -22 2 26 1 26
-20 18 c-11 10 -20 13 -20 8z" />
    <path d="M930 1004 c0 -2 4 -14 10 -28 l9 -25 -11 -7 -11 -7 7 11 c3 6 2 13
-3 16 -10 7 -9 -6 3 -41 12 -37 23 -26 22 21 -1 24 2 42 7 39 4 -2 7 2 7 9 l0
14 -20 0 c-11 0 -20 -1 -20 -2z" />
    <path d="M316 965 c-3 -8 -1 -15 4 -15 6 0 10 7 10 15 0 8 -2 15 -4 15 -2 0
-6 -7 -10 -15z" />
    <path d="M515 970 c3 -5 8 -10 11 -10 2 0 4 5 4 10 0 6 -5 10 -11 10 -5 0 -7
-4 -4 -10z" />
    <path d="M723 965 c0 -8 4 -15 9 -15 4 0 8 4 8 9 0 6 -4 12 -8 15 -5 3 -9 -1
-9 -9z" />
    <path d="M365 840 c-3 -5 -5 -10 -3 -11 2 0 13 -2 24 -5 l22 -4 12 15 12 15
-30 0 c-17 0 -34 -4 -37 -10z" />
    <path d="M463 843 c9 -2 23 -2 30 0 6 3 -1 5 -18 5 l-30 0 18 -5z" />
    <path d="M735 840 c5 -9 103 -5 112 4 3 3 -22 5 -56 5 l-61 -1 5 -8z" />
    <path d="M331 802 l-1 -13 -12 6 c-7 4 -5 0 5 -8 9 -8 17 -20 17 -26 0 -22 25
-5 28 19 l4 23 -15 -6 -16 -6 -5 12 -4 12 -1 -13z" />
    <path d="M934 799 c-3 -6 -2 -15 3 -20 l9 -9 0 20 c0 23 -2 24 -12 9z" />
    <path d="M444 789 c-3 -6 -17 -9 -30 -6 -13 2 -24 3 -24 1 0 -1 -3 -11 -7 -21
l-7 -18 17 13 c8 8 24 12 34 10 21 -3 43 9 43 23 0 12 -17 11 -26 -2z" />
    <path d="M772 782 l-12 -4 23 -18 24 -19 22 6 c12 3 20 10 18 17 -4 12 -56 25
-75 18z m58 -16 c0 -3 -4 -8 -10 -11 -5 -3 -10 -1 -10 4 0 6 5 11 10 11 6 0
10 -2 10 -4z" />
    <path d="M862 763 c1 -12 5 -23 9 -23 3 0 14 9 24 20 l19 21 -19 -7 -18 -7 6
10 c3 5 0 10 -8 10 l-15 0 2 -24z" />
    <path d="M931 728 c5 -10 12 -18 14 -18 3 0 5 8 5 18 l0 19 -14 0 -15 0 10
-19z" />
    <path d="M327 710 l-5 -20 12 0 c6 0 12 9 13 20 1 11 -2 20 -6 20 -5 0 -11 -9
-14 -20z" />
    <path d="M404 715 l5 -14 -13 5 -13 5 0 -16 c0 -8 5 -15 11 -15 12 1 46 24 46
32 0 3 -9 8 -21 11 l-21 6 6 -14z" />
    <path d="M810 708 c0 -4 -7 -8 -15 -8 -8 0 -15 -5 -15 -11 l0 -10 27 3 28 3 3
16 3 16 -16 0 c-8 0 -15 -4 -15 -9z" />
    <path d="M880 689 c0 -5 5 -7 10 -4 6 3 10 8 10 11 0 2 -4 4 -10 4 -5 0 -10
-5 -10 -11z" />
    <path d="M444 663 l-29 -26 14 -5 c20 -7 61 19 61 40 0 10 -4 18 -9 18 -4 0
-21 -12 -37 -27z" />
    <path d="M745 680 c3 -5 8 -10 11 -10 2 0 4 5 4 10 0 6 -5 10 -11 10 -5 0 -7
-4 -4 -10z" />
    <path d="M337 654 c-8 -8 1 -24 13 -24 4 0 10 7 14 15 l5 15 -13 0 c-7 0 -16
-3 -19 -6z" />
    <path d="M770 650 c0 -5 5 -10 11 -10 5 0 7 5 4 10 -3 6 -8 10 -11 10 -2 0 -4
-4 -4 -10z" />
    <path d="M860 632 c0 -5 7 -13 16 -16 l16 -6 -4 12 c-5 15 -28 23 -28 10z" />
    <path d="M603 479 c-18 -12 -33 -25 -33 -30 0 -14 16 -11 30 6 l12 15 24 -6
c13 -3 24 -4 24 -1 0 12 -13 37 -19 37 -3 0 -21 -10 -38 -21z" />
    <path d="M532 410 l-12 -20 15 0 15 0 0 20 c0 11 -1 20 -3 20 -1 0 -8 -9 -15
-20z" />
    <path d="M466 374 l-6 -16 12 4 c15 5 23 28 10 28 -5 0 -13 -7 -16 -16z" />
    <path d="M570 355 c0 -8 5 -15 10 -15 6 0 10 7 10 15 0 8 -4 15 -10 15 -5 0
-10 -7 -10 -15z" />
    <path d="M450 335 c0 -8 5 -15 10 -15 6 0 10 7 10 15 0 8 -4 15 -10 15 -5 0
-10 -7 -10 -15z" />
    <path d="M260 307 l-35 -12 -3 -27 c-2 -16 1 -28 6 -28 16 0 22 13 11 27 l-11
13 36 15 c20 8 36 17 36 20 0 6 3 7 -40 -8z" />
    <path d="M323 305 c0 -9 4 -14 9 -13 5 2 10 8 10 13 0 5 -5 11 -10 13 -5 1 -9
-4 -9 -13z" />
    <path d="M915 300 l-6 -10 20 0 c11 0 23 5 26 10 l6 10 -20 0 c-11 0 -23 -4
-26 -10z" />
    <path d="M1005 300 c3 -5 11 -10 16 -10 6 0 7 5 4 10 -3 6 -11 10 -16 10 -6 0
-7 -4 -4 -10z" />
    <path d="M965 280 l-6 -10 16 0 16 0 -6 10 c-3 6 -8 10 -10 10 -2 0 -7 -4 -10
-10z" />
    <path d="M1027 263 c-4 -3 -7 -11 -7 -17 l0 -10 12 12 c6 6 9 14 7 17 -3 3 -9
2 -12 -2z" />
    <path d="M360 201 c0 -5 18 -11 40 -15 22 -3 40 -11 40 -16 l0 -9 17 6 16 6
-8 -13 -8 -13 14 5 c8 3 32 -3 54 -13 46 -21 65 -24 65 -8 0 5 -4 8 -8 5 -4
-2 -28 5 -52 16 -50 22 -149 58 -162 58 -4 0 -8 -4 -8 -9z" />
    <path d="M810 191 c-25 -9 -62 -25 -83 -34 -21 -9 -53 -19 -72 -23 -19 -3 -33
-10 -30 -14 4 -7 43 -1 90 14 6 2 14 4 19 4 5 0 12 5 16 12 4 6 18 12 31 12
13 1 32 8 41 16 9 8 21 11 26 8 5 -3 15 1 22 9 l12 15 -13 -1 c-8 0 -34 -8
-59 -18z" />
    <path d="M300 187 c0 -19 30 -43 63 -51 38 -9 34 8 -5 19 l-33 10 3 18 3 17
-16 0 c-8 0 -15 -6 -15 -13z" />
    <path d="M923 185 c0 -18 19 -15 25 3 2 7 -3 12 -10 12 -8 0 -15 -7 -15 -15z" />
    <path d="M870 156 c0 -18 17 -21 40 -6 l15 10 -12 0 c-6 0 -18 3 -27 6 l-16 6
0 -16z" />
    <path d="M812 134 c-18 -8 -37 -12 -43 -9 -5 4 -9 1 -9 -4 0 -6 -3 -10 -7 -10
-20 3 -30 -2 -30 -15 l0 -15 51 20 c28 12 59 23 69 26 9 3 17 9 17 14 0 12 -8
10 -48 -7z" />
    <path d="M420 125 c0 -7 39 -26 71 -35 l29 -9 0 15 c0 8 -4 13 -9 10 -5 -3
-25 1 -45 9 -38 16 -46 18 -46 10z" />
    <path d="M645 100 c-3 -5 -1 -10 5 -10 l12 0 -5 -14 -6 -15 14 6 15 5 -11 19
c-11 22 -15 23 -24 9z" />
    <path d="M566 81 c-3 -5 1 -11 9 -14 l14 -6 -6 15 c-6 16 -10 17 -17 5z" />
  </g>
  <g transform="translate(0.000000,120.000000) scale(0.100000,-0.100000)" fill="#182409" stroke="none">
    <path d="M618 1053 l-18 -4 0 -40 0 -40 20 11 21 11 -3 35 c-1 18 -2 33 -3 33
0 -1 -8 -3 -17 -6z" />
    <path d="M480 1039 c0 -5 5 -7 11 -4 l10 7 -4 -40 -5 -40 19 5 c20 6 26 28 9
38 -5 3 -10 15 -10 26 l0 19 -15 0 c-8 0 -15 -5 -15 -11z" />
    <path d="M720 1023 c0 -14 -5 -33 -10 -43 l-10 -20 15 6 15 6 0 25 0 24 10 -6
10 -6 0 19 0 19 -15 0 -15 0 0 -24z" />
    <path d="M809 1038 l13 -18 -4 -30 c-3 -17 -1 -33 4 -36 4 -3 8 1 8 9 0 8 3
30 6 48 4 19 3 31 -1 27 -5 -4 -15 -2 -24 5 l-16 12 14 -17z" />
    <path d="M402 1003 l-2 -43 15 0 c8 0 15 7 15 16 0 8 -4 13 -9 9 l-10 -5 -4
32 -4 33 -1 -42z" />
    <path d="M291 1010 c0 -8 6 -28 13 -45 l12 -29 8 12 7 12 -11 0 -12 0 6 26 7
26 -10 -6 c-5 -3 -12 0 -14 6 l-5 13 -1 -15z" />
    <path d="M927 1013 c-3 -5 -8 -23 -12 -40 l-7 -33 10 0 c5 0 9 6 9 13 0 6 4
24 8 40 7 25 2 37 -8 20z" />
    <path d="M323 833 c-18 -6 -16 -20 3 -27 l15 -6 -7 12 -7 11 10 -6 c6 -4 16
-21 22 -37 l10 -31 -11 8 c-7 3 -25 8 -41 10 l-30 3 12 -13 c6 -8 7 -18 3 -22
-4 -5 -2 -5 4 -2 6 4 19 -2 29 -13 l18 -20 -16 0 c-10 0 -17 -5 -17 -11 0 -5
-4 -8 -9 -5 -11 7 -23 -22 -15 -36 4 -5 20 -8 37 -5 l31 4 18 -21 17 -21 1 13
c0 7 4 10 10 7 l10 -6 -10 26 -10 26 20 -11 19 -10 6 11 7 10 -21 6 c-11 3
-18 10 -15 15 l7 10 -21 -6 -20 -7 2 18 c2 10 8 19 14 19 7 1 17 2 22 3 6 0
10 6 10 12 l0 11 -20 -5 c-11 -3 -20 -1 -20 3 0 5 -3 16 -7 26 l-6 17 11 -7
12 -7 0 12 c0 7 3 9 6 6 8 -8 44 10 44 22 0 11 -31 19 -48 14 -6 -3 -10 -9 -6
-14 3 -5 -2 -9 -10 -9 -8 0 -18 5 -22 12 l-7 11 14 -8 14 -8 -8 8 c-9 11 -37
15 -54 8z" />
    <path d="M843 817 l-6 -10 13 8 13 8 -7 -11 -7 -12 -19 10 c-10 5 -29 10 -41
10 l-22 0 19 -22 c10 -12 13 -18 5 -13 l-14 8 8 -12 7 -13 31 5 30 4 -18 -14
c-11 -7 -22 -13 -25 -13 -4 0 -6 -10 -4 -22 4 -35 4 -35 18 -3 l13 30 -2 -40
-3 -40 12 -8 11 -9 -15 5 c-8 2 -14 10 -12 16 1 6 -5 11 -14 11 l-15 0 7 -12
7 -11 -21 5 -22 6 0 -13 c0 -8 5 -17 12 -21 l11 -7 -8 12 -7 12 21 -13 c12 -7
21 -21 21 -30 0 -23 9 -22 39 1 l24 19 27 -8 26 -7 1 18 c1 10 -3 22 -9 25
l-11 7 8 -14 8 -14 -20 18 c-11 9 -22 15 -25 12 -2 -3 -4 3 -3 14 0 10 14 30
31 44 l29 26 -13 1 c-7 0 -21 -4 -31 -9 -9 -5 -21 -7 -27 -3 -11 9 -14 52 -2
52 4 0 8 -4 8 -10 0 -5 6 -7 14 -4 8 3 12 12 10 19 -7 16 -52 26 -61 12z" />
    <path d="M380 295 c0 -8 7 -15 15 -15 8 0 15 7 15 15 0 8 -7 15 -15 15 -8 0
-15 -7 -15 -15z" />
    <path d="M470 235 c0 -8 7 -15 15 -15 8 0 15 7 15 15 0 8 -7 15 -15 15 -8 0
-15 -7 -15 -15z" />
    <path d="M866 171 c-4 -5 -2 -12 3 -15 5 -4 12 -2 15 3 4 5 2 12 -3 15 -5 4
-12 2 -15 -3z" />
    <path d="M916 165 l-5 -15 14 0 c8 0 15 7 15 15 0 8 -4 15 -9 15 -5 0 -11 -7
-15 -15z" />
    <path d="M795 160 c3 -5 11 -10 16 -10 6 0 7 5 4 10 -3 6 -11 10 -16 10 -6 0
-7 -4 -4 -10z" />
    <path d="M328 153 c7 -3 16 -2 19 1 4 3 -2 6 -13 5 l-19 -1 13 -5z" />
    <path d="M385 150 l-6 -10 15 6 c18 7 21 14 7 14 -6 0 -13 -4 -16 -10z" />
    <path d="M590 145 c0 -8 7 -15 15 -15 8 0 15 7 15 15 0 8 -7 15 -15 15 -8 0
-15 -7 -15 -15z" />
    <path d="M736 121 l-38 -18 26 -5 26 -5 0 14 c0 8 4 12 9 9 5 -3 11 1 15 9 3
8 4 15 3 15 -1 -1 -19 -9 -41 -19z" />
    <path d="M510 101 c0 -5 10 -7 22 -3 l21 5 -8 -13 -8 -13 12 7 c6 4 9 12 6 17
-8 12 -45 12 -45 0z" />
    <path d="M623 93 c9 -2 15 -9 12 -14 -4 -5 -1 -9 4 -9 6 0 11 5 11 11 l0 11
15 -12 15 -13 -6 17 -6 16 -32 -1 -31 -1 18 -5z" />
  </g>
  <g transform="translate(0.000000,120.000000) scale(0.100000,-0.100000)" fill="#1b4eb6" stroke="none">
    <path d="M296 554 c-10 -27 -7 -68 10 -119 l17 -48 18 -4 c11 -3 19 -12 19
-19 0 -8 7 -14 15 -14 8 0 15 6 15 13 0 7 16 19 35 27 l35 14 6 20 7 20 -11 4
c-5 1 -20 12 -33 23 -12 10 -28 19 -35 19 l-14 0 -6 40 -7 40 -32 0 -33 0 -6
-16z" />
    <path d="M832 563 c-30 -6 -91 -67 -109 -110 l-14 -34 6 -20 7 -20 51 2 c68 3
127 19 127 35 0 7 6 14 12 16 l13 5 -1 41 c-1 23 2 42 7 42 5 0 9 8 9 19 l0
19 -22 6 c-25 6 -49 6 -86 -1z" />
    <path d="M750 345 c0 -8 7 -15 15 -15 8 0 15 7 15 15 0 8 -7 15 -15 15 -8 0
-15 -7 -15 -15z" />
    <path d="M750 296 c0 -7 10 -16 23 -20 35 -9 47 -7 47 8 0 15 -21 26 -51 26
l-19 0 0 -14z" />
    <path d="M572 194 l3 -19 38 -3 37 -3 0 15 0 16 -17 0 c-10 0 -29 3 -42 7
l-23 6 4 -19z" />
  </g>
  <g transform="translate(0.000000,120.000000) scale(0.100000,-0.100000)" fill="#8a7840" stroke="none">
    <path d="M440 1054 l0 -15 10 6 c6 3 10 10 10 16 0 5 -4 9 -10 9 -5 0 -10 -7
-10 -16z" />
    <path d="M890 1060 c0 -5 5 -10 11 -10 5 0 7 5 4 10 -3 6 -8 10 -11 10 -2 0
-4 -4 -4 -10z" />
    <path d="M340 1049 c0 -5 5 -7 10 -4 6 3 10 8 10 11 0 2 -4 4 -10 4 -5 0 -10
-5 -10 -11z" />
    <path d="M480 1022 c0 -17 4 -34 10 -37 l10 -6 -7 33 c-8 44 -13 48 -13 10z" />
    <path d="M740 1015 c0 -19 2 -35 4 -35 2 0 6 16 8 35 2 19 0 35 -4 35 -4 0 -8
-16 -8 -35z" />
    <path d="M935 1040 c3 -5 8 -10 11 -10 2 0 4 5 4 10 0 6 -5 10 -11 10 -5 0 -7
-4 -4 -10z" />
    <path d="M632 1015 l0 -30 5 18 c2 9 2 23 0 30 -3 6 -5 -1 -5 -18z" />
    <path d="M885 1029 c-4 -6 -5 -12 -2 -15 2 -3 7 2 10 11 7 17 1 20 -8 4z" />
    <path d="M422 990 c0 -19 2 -27 5 -17 2 9 2 25 0 35 -3 9 -5 1 -5 -18z" />
    <path d="M520 990 c0 -5 5 -10 10 -10 6 0 10 5 10 10 0 6 -4 10 -10 10 -5 0
-10 -4 -10 -10z" />
    <path d="M559 855 c-1 -3 -2 -11 -3 -17 0 -7 -14 -17 -31 -23 -16 -5 -33 -14
-36 -19 l-7 -9 -13 8 -12 8 6 -16 6 -16 -16 6 -15 6 7 -31 7 -32 -11 0 c-20 0
-11 -17 14 -28 14 -6 25 -16 25 -21 0 -5 -16 -16 -35 -25 -19 -9 -35 -23 -35
-31 l0 -14 46 -7 c58 -8 178 -9 223 -1 19 3 38 10 43 15 5 5 11 21 14 35 l4
27 -11 0 c-6 0 -13 -9 -16 -19 l-5 -19 -46 -15 -47 -15 -40 7 -40 6 -17 35
-18 35 6 40 c6 40 37 85 60 85 11 0 24 21 24 41 0 9 -29 13 -31 4z" />
    <path d="M620 845 c0 -9 12 -21 28 -27 38 -16 72 -48 72 -68 0 -18 22 -70 30
-70 3 0 11 9 17 19 l12 20 -19 6 -19 6 5 14 5 13 -36 41 c-21 23 -33 41 -29
42 14 1 -29 18 -48 18 l-18 1 0 -15z" />
    <path d="M564 735 l-16 -25 6 -25 7 -26 52 3 52 3 3 35 4 34 -18 13 c-10 7
-30 13 -46 13 l-28 0 -16 -25z m61 -15 c-27 -12 -35 -12 -35 0 0 6 12 10 28 9
l27 0 -20 -9z" />
    <path d="M350 609 c0 -5 5 -7 10 -4 6 3 10 8 10 11 0 2 -4 4 -10 4 -5 0 -10
-5 -10 -11z" />
    <path d="M283 289 c-18 -5 -33 -11 -33 -12 0 -1 23 -3 51 -4 l50 -2 -4 12 c-5
16 -25 18 -64 6z" />
    <path d="M900 264 l0 -15 23 7 c12 3 29 10 37 15 l15 8 -37 1 -38 0 0 -16z" />
    <path d="M980 276 c0 -2 7 -6 15 -10 8 -3 15 -1 15 4 0 6 -7 10 -15 10 -8 0
-15 -2 -15 -4z" />
    <path d="M264 253 l-17 -17 12 -4 c10 -3 41 20 41 32 0 12 -19 6 -36 -11z" />
    <path d="M975 250 c3 -5 11 -10 16 -10 6 0 7 5 4 10 -3 6 -11 10 -16 10 -6 0
-7 -4 -4 -10z" />
    <path d="M350 194 l0 -16 15 12 c8 7 15 14 15 16 0 2 -7 4 -15 4 -8 0 -15 -7
-15 -16z" />
  </g>
  <g transform="translate(0.000000,120.000000) scale(0.100000,-0.100000)" fill="#d5433e" stroke="none">
    <path d="M560 890 l0 -20 26 -6 c34 -9 78 7 82 29 l3 17 -55 0 -56 0 0 -20z" />
    <path d="M543 799 l-33 -10 0 -29 c0 -17 -4 -30 -10 -30 -15 0 -12 -35 7 -75
l17 -35 22 0 c12 0 27 -7 34 -15 7 -8 22 -15 34 -15 29 0 93 45 101 71 4 11 4
41 0 66 l-6 44 -20 20 -19 19 -47 -1 c-27 0 -63 -5 -80 -10z m105 -61 c8 -11
9 -33 3 -71 0 -5 -20 -7 -43 -5 l-43 3 -3 18 c-2 10 4 29 12 42 l16 25 24 0
c13 0 28 -6 34 -12z" />
    <path d="M290 229 c-7 -11 -10 -22 -8 -24 2 -2 22 -1 46 2 l42 6 0 12 c0 7 -7
16 -16 19 -30 11 -53 6 -64 -15z" />
  </g>
  <g transform="translate(0.000000,120.000000) scale(0.100000,-0.100000)" fill="#af5539" stroke="none">
    <path d="M543 904 l-6 -15 20 -22 c21 -23 20 -47 -1 -47 -19 0 -53 -42 -60
-75 -11 -45 -9 -59 11 -101 l18 -38 45 -8 45 -8 50 15 50 16 18 38 c9 21 17
42 17 48 0 6 -7 16 -15 23 -8 7 -15 22 -15 35 0 28 -28 53 -68 61 l-32 7 0 13
0 14 19 0 20 0 6 20 c3 11 3 24 0 30 -3 5 -31 10 -61 10 l-55 0 -6 -16z m103
-19 c-21 -16 -36 -18 -60 -9 -31 12 -15 24 32 24 l47 -1 -19 -14z m24 -95 c19
-10 40 -65 40 -104 0 -22 -67 -86 -91 -86 -9 0 -22 7 -29 15 -7 8 -22 15 -35
15 l-22 0 -19 42 -19 41 13 5 c6 2 12 17 12 33 l0 28 33 10 c44 13 94 13 117
1z" />
    <path d="M571 744 c-23 -30 -28 -76 -8 -91 6 -6 31 -8 55 -5 l42 4 0 12 0 11
-44 -3 -43 -4 -7 18 -6 17 15 23 c17 26 35 30 66 14 l19 -11 0 10 c0 12 -7 16
-42 25 l-27 6 -20 -26z" />
    <path d="M328 283 c-22 -6 -27 -23 -19 -64 l7 -34 23 -3 23 -4 -4 24 -3 23
-17 -1 -17 -2 12 19 12 19 7 -21 c9 -23 28 -17 28 10 0 17 -19 42 -29 40 -4
-1 -13 -3 -23 -6z" />
    <path d="M930 235 l0 -15 -21 0 -21 0 4 -12 c3 -7 16 -14 30 -16 l25 -3 6 22
c3 12 4 26 1 31 -9 13 -24 9 -24 -7z" />
    <path d="M1000 224 c0 -17 22 -14 28 4 2 7 -3 12 -12 12 -9 0 -16 -7 -16 -16z" />
    <path d="M256 216 c3 -9 11 -16 16 -16 13 0 5 23 -10 28 l-12 4 6 -16z" />
  </g>
  <g transform="translate(0.000000,120.000000) scale(0.100000,-0.100000)" fill="#3a6ec0" stroke="none">
    <path d="M290 550 c0 -11 2 -20 5 -20 2 0 9 9 15 20 l11 20 -16 0 -15 0 0 -20z" />
    <path d="M360 536 c4 -19 5 -37 2 -40 -3 -3 9 -11 27 -17 l32 -11 -5 -14 -5
-13 16 6 16 6 -6 -18 -7 -18 17 14 17 14 -8 -12 -7 -13 20 0 21 0 0 15 0 16
30 6 c17 3 30 9 30 14 0 4 29 22 65 39 l65 31 0 15 0 14 -50 0 -51 0 -23 -23
-22 -23 -20 7 c-55 18 -64 22 -64 30 0 5 -22 9 -49 9 l-49 0 8 -34z" />
    <path d="M760 515 c0 -8 -7 -15 -15 -15 -8 0 -15 -7 -15 -15 0 -8 -4 -15 -10
-15 -5 0 -10 -7 -10 -15 0 -26 15 -17 48 30 l32 45 -15 0 c-8 0 -15 -7 -15
-15z" />
    <path d="M300 464 l0 -15 10 6 c6 3 10 10 10 16 0 5 -4 9 -10 9 -5 0 -10 -7
-10 -16z" />
    <path d="M906 434 c-10 -25 -7 -34 9 -34 8 0 15 4 15 9 0 5 3 16 6 25 l6 16
-15 0 c-8 0 -18 -7 -21 -16z" />
    <path d="M292 428 c6 -18 28 -21 28 -4 0 9 -7 16 -16 16 -9 0 -14 -5 -12 -12z" />
    <path d="M710 396 l0 -29 50 7 50 7 0 -16 c0 -8 -7 -15 -15 -15 -8 0 -15 -7
-15 -15 0 -8 5 -15 10 -15 6 0 10 -7 10 -15 l0 -15 20 0 20 0 0 15 c0 8 -7 15
-15 15 -8 0 -15 7 -15 15 0 8 6 15 14 15 13 0 26 20 26 40 0 5 -26 8 -57 6
l-58 -2 -12 15 -12 16 -1 -29z" />
    <path d="M415 400 l-6 -10 15 0 c9 0 16 5 16 10 0 6 -4 10 -9 10 -6 0 -13 -4
-16 -10z" />
    <path d="M340 365 l0 -15 18 0 19 0 0 15 0 15 -19 0 -18 0 0 -15z" />
    <path d="M390 345 c0 -8 7 -15 15 -15 8 0 15 7 15 15 0 8 -7 15 -15 15 -8 0
-15 -7 -15 -15z" />
    <path d="M740 326 l0 -26 16 0 15 0 -3 22 c-2 12 -9 23 -15 26 l-13 4 0 -26z" />
    <path d="M750 275 c0 -8 7 -15 15 -15 8 0 15 7 15 15 0 8 -7 15 -15 15 -8 0
-15 -7 -15 -15z" />
    <path d="M590 255 c0 -8 7 -15 15 -15 8 0 15 7 15 15 0 8 -7 15 -15 15 -8 0
-15 -7 -15 -15z" />
    <path d="M689 233 l-1 -18 -5 13 c-2 6 -12 12 -20 12 l-15 0 5 -14 6 -15 -15
6 -14 5 0 -16 0 -16 35 0 35 0 0 15 c0 8 5 15 10 15 6 0 10 7 10 15 0 21 -30
19 -31 -2z" />
    <path d="M593 185 c0 -8 6 -15 12 -15 6 0 12 7 12 15 0 8 -6 15 -12 15 -6 0
-12 -7 -12 -15z" />
    <path d="M630 165 c0 -8 7 -15 15 -15 8 0 15 7 15 15 0 8 -7 15 -15 15 -8 0
-15 -7 -15 -15z" />
  </g>
  <g transform="translate(0.000000,120.000000) scale(0.100000,-0.100000)" fill="#3b5587" stroke="none">
    <path d="M276 546 c-3 -16 -6 -37 -6 -47 l0 -19 15 0 15 0 0 40 0 40 55 0 c30
0 55 3 55 8 0 4 -29 7 -64 7 l-64 0 -6 -29z" />
    <path d="M823 572 l-33 -3 -53 -53 -54 -52 -6 -34 -7 -33 17 -13 18 -13 -22
-1 -23 0 0 -14 c0 -8 7 -21 15 -30 8 -8 15 -19 15 -25 0 -6 5 -11 11 -11 6 0
17 -7 25 -15 l15 -15 -15 0 -16 0 0 -20 0 -20 -16 0 -15 0 6 -10 6 -10 -26 0
-26 0 6 10 c4 6 10 8 14 6 4 -3 8 1 8 9 l0 15 -32 6 -32 6 5 24 4 24 -16 0
c-9 0 -16 -6 -17 -12 0 -7 -4 -3 -9 10 -10 24 -25 29 -36 11 l-6 -11 -8 13 -8
13 -16 -13 c-9 -8 -16 -22 -16 -33 l0 -19 10 6 c6 3 10 1 10 -4 0 -6 -4 -11
-8 -11 -4 0 -9 -13 -10 -28 l-2 -29 50 -27 50 -27 0 25 c0 13 -4 26 -9 28 l-8
3 8 20 8 20 0 -17 c1 -21 27 -24 34 -5 l5 12 1 -17 c1 -10 7 -18 15 -18 8 0
18 -9 21 -21 l7 -20 11 5 c7 3 20 9 30 12 9 4 17 11 17 16 0 5 11 20 25 34 14
14 25 30 26 37 0 7 4 4 7 -6 l7 -17 23 15 c12 9 22 20 22 24 0 4 -17 12 -37
17 l-38 9 -1 23 c-2 28 10 36 33 23 l18 -10 -17 -1 -18 0 0 -15 c0 -17 27 -20
32 -4 l4 12 16 -17 c9 -9 21 -16 26 -16 14 0 64 88 57 100 -3 6 -21 10 -39 10
l-33 0 0 -15 0 -15 19 0 c22 0 24 -16 2 -24 -24 -9 -34 -7 -34 7 0 6 -4 18 -9
25 l-8 13 -26 -7 c-15 -3 -27 -12 -27 -20 0 -20 -20 -17 -22 4 -4 47 -2 90 5
85 6 -4 11 12 8 30 0 4 2 6 6 6 21 -3 32 2 28 14 l-5 12 32 17 c48 24 73 30
102 22 l26 -6 0 -15 c0 -23 25 -9 28 15 l3 22 -13 1 c-45 3 -97 4 -125 1z
m-103 -252 c0 -5 -5 -10 -11 -10 -5 0 -7 5 -4 10 3 6 8 10 11 10 2 0 4 -4 4
-10z m-180 -110 c0 -5 -7 -10 -16 -10 l-15 0 6 10 c3 6 10 10 16 10 5 0 9 -4
9 -10z" />
    <path d="M657 548 l-19 -20 -19 5 -19 5 7 -11 6 -10 -17 6 -17 7 7 -12 7 -11
-15 5 -15 6 0 -14 c0 -17 -3 -17 95 16 l72 24 0 13 0 13 -27 -1 -28 -1 -18
-20z" />
    <path d="M916 468 c-8 -33 -8 -35 9 -35 8 0 15 6 15 13 0 7 3 19 6 28 l6 16
-15 0 c-8 0 -17 -10 -21 -22z" />
    <path d="M493 460 c-17 -10 -35 -25 -40 -33 -4 -8 -18 -19 -30 -26 -13 -6 -23
-18 -23 -26 l0 -15 -26 0 c-14 0 -23 4 -20 9 3 5 -1 14 -9 21 -8 6 -19 27 -25
46 l-12 34 -15 0 -15 0 6 -16 c3 -9 6 -20 6 -25 0 -6 5 -7 12 -3 l11 7 -7 -11
c-10 -17 12 -63 34 -69 11 -3 20 -12 20 -19 0 -8 5 -14 10 -14 6 0 10 -9 10
-19 0 -23 18 -37 30 -25 8 8 22 62 23 92 0 6 5 12 11 12 16 0 38 39 30 52 l-7
11 10 -6 c5 -3 22 2 37 12 38 25 18 35 -21 11z" />
    <path d="M620 275 c0 -8 7 -15 15 -15 8 0 15 7 15 15 0 8 -7 15 -15 15 -8 0
-15 -7 -15 -15z" />
  </g>
  <g transform="translate(0.000000,120.000000) scale(0.100000,-0.100000)" fill="#e0d8c8" stroke="none">
    <path d="M538 1090 c2 -16 9 -30 14 -30 l9 0 -6 23 c-11 35 -22 40 -17 7z" />
    <path d="M575 1110 c3 -5 11 -10 16 -10 6 0 7 5 4 10 -3 6 -11 10 -16 10 -6 0
-7 -4 -4 -10z" />
    <path d="M650 1110 c0 -5 5 -10 10 -10 6 0 10 5 10 10 0 6 -4 10 -10 10 -5 0
-10 -4 -10 -10z" />
    <path d="M685 1109 c-4 -6 -5 -12 -2 -15 2 -3 7 2 10 11 7 17 1 20 -8 4z" />
    <path d="M744 1109 c1 -7 19 -14 39 -16 l37 -4 0 12 0 11 -15 -5 c-8 -4 -17
-2 -21 4 l-6 10 -13 -11 -13 -11 -5 11 -5 11 2 -12z" />
    <path d="M410 1099 c0 -5 4 -9 9 -9 5 0 11 -9 14 -21 l6 -21 10 7 c6 3 11 11
11 16 0 6 -4 7 -10 4 l-10 -6 6 16 7 16 13 -5 c7 -3 16 -1 19 4 l5 9 -40 -1
c-22 0 -40 -4 -40 -9z" />
    <path d="M365 1090 c-3 -5 -2 -10 4 -10 5 0 13 5 16 10 3 6 2 10 -4 10 -5 0
-13 -4 -16 -10z" />
    <path d="M845 1090 c3 -5 11 -10 16 -10 6 0 7 5 4 10 -3 6 -11 10 -16 10 -6 0
-7 -4 -4 -10z" />
    <path d="M284 1074 l-19 -16 18 6 c9 3 24 9 32 12 l15 6 0 -16 c0 -9 4 -16 8
-16 4 0 8 9 8 20 l0 20 -21 0 c-12 0 -30 -7 -41 -16z" />
    <path d="M884 1083 c3 -4 14 -8 24 -9 9 -1 26 -5 37 -9 l20 -7 -19 16 c-19 15
-77 24 -62 9z" />
    <path d="M235 1059 c-4 -6 -5 -12 -2 -15 2 -3 7 2 10 11 7 17 1 20 -8 4z" />
    <path d="M240 1023 c0 -4 7 -17 15 -27 l15 -20 0 13 c0 7 -7 19 -15 27 -8 9
-15 12 -15 7z" />
    <path d="M972 1008 c-7 -7 -12 -16 -12 -21 0 -5 7 -1 16 8 9 9 14 18 12 20 -2
3 -10 -1 -16 -7z" />
    <path d="M274 947 c2 -15 -1 -30 -5 -33 -5 -3 -9 -10 -9 -17 l0 -11 16 16 16
16 -11 29 -11 28 4 -28z" />
    <path d="M947 941 l-6 -24 11 11 c5 5 8 16 6 23 l-4 13 -7 -23z" />
    <path d="M946 895 c4 -8 8 -15 10 -15 2 0 4 7 4 15 0 8 -4 15 -10 15 -5 0 -7
-7 -4 -15z" />
    <path d="M946 838 c-8 -39 -3 -268 6 -268 4 0 8 65 8 145 0 138 -4 173 -14
123z" />
    <path d="M740 560 c0 -5 4 -10 9 -10 6 0 13 5 16 10 l6 10 -15 0 c-9 0 -16 -4
-16 -10z" />
    <path d="M640 489 c0 -5 5 -7 10 -4 6 3 10 8 10 11 0 2 -4 4 -10 4 -5 0 -10
-5 -10 -11z" />
    <path d="M707 493 c-4 -3 -7 -11 -7 -17 l0 -10 12 12 c6 6 9 14 7 17 -3 3 -9
2 -12 -2z" />
    <path d="M640 459 c0 -5 5 -7 10 -4 6 3 10 8 10 11 0 2 -4 4 -10 4 -5 0 -10
-5 -10 -11z" />
    <path d="M557 443 c3 -7 9 -13 14 -13 5 0 9 6 9 13 0 8 -6 14 -14 14 l-14 0 5
-14z" />
    <path d="M590 421 c-5 -11 -10 -29 -10 -41 l0 -21 10 6 c6 3 10 15 10 26 0 11
7 22 15 25 19 8 19 24 0 24 -8 0 -19 -9 -25 -19z" />
    <path d="M666 411 c-4 -7 -5 -15 -2 -18 9 -9 19 4 14 18 l-4 13 -8 -13z" />
    <path d="M520 391 c0 -5 -3 -16 -6 -25 l-6 -16 12 0 c6 0 8 5 5 10 -3 6 -2 10
3 10 6 0 12 7 16 15 l5 15 -14 0 c-8 0 -15 -4 -15 -9z" />
    <path d="M473 384 c3 -4 0 -13 -8 -21 -8 -8 -15 -20 -15 -26 1 -14 40 30 40
44 0 5 -5 9 -12 9 -6 0 -9 -3 -5 -6z" />
    <path d="M570 340 c0 -5 5 -10 10 -10 6 0 10 5 10 10 0 6 -4 10 -10 10 -5 0
-10 -4 -10 -10z" />
    <path d="M315 320 l-30 -8 28 -1 28 -1 6 -17 c4 -10 12 -24 19 -31 l13 -12 -4
27 c-2 16 -4 31 -4 35 -1 4 -8 4 -18 1 l-16 -6 7 11 c4 7 6 11 4 11 -2 -1 -16
-5 -33 -9z" />
    <path d="M225 290 c-16 -11 -24 -20 -17 -20 6 0 12 -6 12 -14 0 -8 4 -18 10
-21 l10 -6 -6 29 -6 28 24 11 c12 7 19 12 13 12 -5 1 -23 -8 -40 -19z" />
    <path d="M900 290 c-19 -19 -25 -38 -21 -67 1 -6 -12 -14 -29 -18 -16 -4 -32
-10 -34 -14 -6 -9 80 12 90 22 4 3 2 12 -4 20 l-11 13 9 14 c5 8 7 17 4 22 -3
4 10 12 28 17 l33 9 -22 1 c-13 1 -32 -8 -43 -19z" />
    <path d="M1018 295 c13 -9 26 -14 29 -11 8 8 3 12 -27 21 l-25 7 23 -17z" />
    <path d="M281 261 c-8 -5 -15 -20 -16 -33 l-2 -23 -13 3 -13 3 13 -16 c7 -9
20 -13 27 -10 l15 5 19 -22 18 -23 -11 32 c-7 17 -20 35 -30 40 l-17 8 9 15 9
15 13 -14 13 -14 -12 7 -13 7 0 -11 c0 -21 23 -5 27 18 l3 22 -13 0 c-6 0 -18
-4 -26 -9z" />
    <path d="M1024 253 c-4 -10 -6 -21 -6 -25 1 -5 -2 -8 -8 -8 -5 0 -10 7 -10 15
0 8 -4 15 -10 15 -5 0 -9 -16 -8 -34 l1 -35 18 10 c11 5 22 21 25 34 3 14 10
25 15 25 5 0 9 5 9 10 0 16 -17 11 -26 -7z" />
    <path d="M932 243 c3 -19 28 -31 28 -13 l0 11 -12 -7 -13 -8 14 17 13 17 -17
0 -16 0 3 -17z" />
    <path d="M355 220 c-4 -6 -5 -12 -4 -14 2 -1 31 -10 64 -20 33 -10 77 -27 98
-38 22 -11 45 -17 53 -14 8 3 14 1 14 -4 0 -6 5 -10 10 -10 6 0 10 7 10 16 l0
16 -25 -6 -25 -6 -32 16 c-17 9 -56 25 -87 35 -30 11 -58 24 -62 30 l-6 11 -8
-12z" />
    <path d="M459 210 c12 -11 27 -17 33 -14 l9 6 -18 14 c-10 7 -25 13 -33 13
l-15 0 24 -19z" />
    <path d="M940 194 l0 -15 10 6 c6 3 10 10 10 16 0 5 -4 9 -10 9 -5 0 -10 -7
-10 -16z" />
    <path d="M755 170 c-8 -13 5 -13 25 0 l15 10 -17 0 c-9 0 -20 -4 -23 -10z" />
    <path d="M925 160 c-3 -5 -1 -10 4 -10 6 0 11 5 11 10 0 6 -2 10 -4 10 -3 0
-8 -4 -11 -10z" />
    <path d="M710 150 l-15 -10 -37 6 -38 6 0 -17 0 -17 37 7 c37 7 98 34 78 34
-5 1 -17 -4 -25 -9z" />
    <path d="M813 129 c-34 -15 -64 -25 -67 -21 -3 3 -6 0 -6 -6 0 -7 2 -12 5 -12
3 0 31 11 63 24 31 13 66 26 77 28 l20 4 -15 5 c-8 4 -43 -6 -77 -22z" />
    <path d="M375 140 c-3 -5 -1 -10 4 -10 6 0 11 5 11 10 0 6 -2 10 -4 10 -3 0
-8 -4 -11 -10z" />
    <path d="M420 125 c0 -7 57 -35 71 -35 7 0 10 2 8 5 -9 8 -79 35 -79 30z" />
    <path d="M526 78 c3 -4 9 -8 15 -8 5 0 9 4 9 8 0 5 -7 9 -15 9 -8 0 -12 -4 -9
-9z" />
    <path d="M585 70 l-6 -10 41 0 41 0 -6 10 c-3 6 -19 10 -35 10 -16 0 -32 -4
-35 -10z" />
  </g>
  <g transform="translate(0.000000,120.000000) scale(0.100000,-0.100000)" fill="#173c86" stroke="none">
    <path d="M815 560 c3 -5 16 -10 28 -9 l22 0 -20 9 c-28 12 -37 12 -30 0z" />
    <path d="M910 560 l-15 -10 12 0 c6 0 15 5 18 10 8 12 4 12 -15 0z" />
    <path d="M270 539 l0 -20 11 7 12 7 -7 -35 c-7 -40 1 -71 16 -62 l10 7 -7 -22
-6 -21 15 -6 c9 -3 14 -10 11 -14 -3 -5 6 -7 19 -4 30 5 44 -12 16 -19 -23 -6
-27 -37 -5 -37 8 0 15 7 15 15 l0 15 26 0 25 0 -6 11 -7 10 21 6 c38 10 13 20
-43 18 l-54 -3 -15 57 c-9 31 -19 68 -22 84 -6 32 -25 37 -25 6z" />
    <path d="M765 541 c-6 -11 9 -23 19 -14 9 9 7 23 -3 23 -6 0 -12 -4 -16 -9z" />
    <path d="M921 531 l-12 -8 -1 -41 c0 -23 -4 -42 -9 -42 -5 0 -9 -6 -9 -14 l0
-14 -30 -7 c-16 -4 -32 -11 -35 -16 l-6 -9 18 7 18 7 -13 -16 -13 -16 -19 5
c-11 3 -25 11 -31 19 -13 16 -33 19 -24 4 l6 -10 -15 6 -16 6 -5 -14 -6 -15
-22 4 -23 5 0 -22 0 -21 11 14 c5 7 16 12 23 9 l13 -4 -18 -14 -18 -13 22 -1
c12 0 24 -4 27 -9 3 -5 -2 -8 -11 -7 -9 0 -18 -5 -21 -13 l-5 -14 28 7 27 7
-7 -11 c-7 -12 2 -12 30 0 l20 9 -19 0 c-11 1 -17 4 -13 7 3 3 15 3 27 -1 l21
-7 -18 -15 c-10 -8 -12 -12 -5 -8 6 3 12 1 12 -4 0 -6 5 -11 11 -11 5 0 8 4 4
9 -3 5 4 12 15 16 11 4 19 12 18 18 -1 7 4 23 11 36 7 12 11 32 8 42 l-5 19
26 -2 27 -3 -1 17 -2 18 10 -6 10 -7 -7 23 -7 23 13 -8 12 -8 -5 21 -6 22 9
-6 9 -5 0 30 c0 33 -9 44 -29 32z m-160 -194 c-6 -8 -7 -18 -3 -23 4 -4 -1 -2
-11 6 l-19 14 19 7 c26 11 27 10 14 -4z m49 -1 c0 -2 -7 -9 -15 -16 l-15 -13
6 17 c3 9 10 16 15 16 5 0 9 -2 9 -4z" />
    <path d="M720 429 c0 -5 -4 -8 -8 -5 -4 2 -8 -6 -8 -20 0 -33 18 -25 22 9 1
15 1 27 -2 27 -2 0 -4 -5 -4 -11z" />
    <path d="M385 330 c-3 -5 -2 -10 4 -10 5 0 13 5 16 10 3 6 2 10 -4 10 -5 0
-13 -4 -16 -10z" />
    <path d="M493 294 l0 -12 14 5 c7 3 13 8 13 12 0 4 -6 8 -13 8 -8 0 -14 -6
-14 -13z" />
    <path d="M574 251 l7 -11 -15 -6 c-9 -3 -14 -10 -11 -14 3 -5 -4 -6 -15 -3
l-20 5 0 -26 0 -26 15 0 c8 0 15 -5 15 -10 0 -12 19 -9 36 5 l12 10 -9 11 -9
10 30 -4 c16 -2 28 -8 25 -12 -8 -12 21 -19 47 -12 12 4 24 13 26 20 l2 12
-41 0 -41 0 12 15 13 15 18 -5 19 -6 0 15 0 16 -36 0 -35 0 6 -9 c3 -6 -3 -14
-13 -20 l-18 -10 0 21 c1 12 -5 23 -13 26 l-14 5 7 -12z" />
    <path d="M729 248 c0 -7 -2 -21 -4 -30 l-3 -18 15 0 15 0 -5 20 -5 20 10 -6
11 -7 -5 13 c-6 19 -28 25 -29 8z" />
  </g>
  <g transform="translate(0.000000,120.000000) scale(0.100000,-0.100000)" fill="#4a5944" stroke="none">
    <path d="M646 1111 c-3 -5 1 -11 9 -15 8 -3 15 -1 15 4 0 13 -18 22 -24 11z" />
    <path d="M985 1050 c-3 -5 -1 -10 4 -10 6 0 11 5 11 10 0 6 -2 10 -4 10 -3 0
-8 -4 -11 -10z" />
    <path d="M400 830 l-15 -10 12 0 c6 0 15 5 18 10 8 12 4 12 -15 0z" />
    <path d="M788 833 c7 -3 16 -2 19 1 4 3 -2 6 -13 5 l-19 -1 13 -5z" />
    <path d="M942 820 c0 -14 2 -19 5 -12 2 6 2 18 0 25 -3 6 -5 1 -5 -13z" />
    <path d="M281 804 l1 -19 5 13 c3 7 2 16 -1 19 -3 4 -6 -2 -5 -13z" />
    <path d="M358 778 l5 -21 -13 8 -13 8 7 -12 c4 -6 12 -9 17 -6 12 8 12 32 0
39 l-9 6 6 -22z" />
    <path d="M786 778 c3 -4 17 -8 32 -8 l27 -1 -27 -15 c-16 -8 -28 -16 -28 -18
0 -3 14 1 30 7 32 12 34 16 22 32 -8 12 -63 14 -56 3z" />
    <path d="M861 774 l1 -19 5 13 c3 7 2 16 -1 19 -3 4 -6 -2 -5 -13z" />
    <path d="M280 751 c0 -17 2 -31 4 -31 8 0 13 51 5 56 -5 3 -9 -9 -9 -25z" />
    <path d="M938 768 c-3 -7 -1 -24 3 -38 l7 -25 1 38 c1 38 -3 47 -11 25z" />
    <path d="M879 753 l-14 -18 18 14 c9 7 17 15 17 17 0 8 -8 3 -21 -13z" />
    <path d="M830 702 l0 -12 -25 0 -26 0 -6 -16 c-3 -8 -1 -20 5 -26 l11 -11 -6
22 -6 22 53 -3 53 -3 5 15 5 15 -17 -15 -18 -14 -14 19 c-8 10 -14 13 -14 7z" />
    <path d="M338 684 c24 -17 39 -14 27 5 -3 6 -16 11 -28 11 l-21 0 22 -16z" />
    <path d="M390 690 c-8 -5 -12 -11 -10 -14 3 -2 14 2 24 10 22 15 10 19 -14 4z" />
    <path d="M292 665 c-17 -37 -14 -45 4 -12 9 16 14 31 11 33 -2 2 -9 -7 -15
-21z" />
    <path d="M940 669 c0 -5 -5 -7 -11 -3 l-11 6 11 -19 c6 -11 7 -23 4 -27 -3 -3
-1 -6 5 -6 l12 0 0 30 c0 17 -2 30 -5 30 -3 0 -5 -5 -5 -11z" />
    <path d="M860 632 c0 -5 7 -9 15 -9 8 0 12 4 9 9 -3 4 -9 8 -15 8 -5 0 -9 -4
-9 -8z" />
    <path d="M930 580 c-16 -10 -8 -23 15 -26 8 -1 15 4 15 11 0 19 -13 25 -30 15z" />
    <path d="M270 565 c0 -8 5 -15 10 -15 6 0 10 7 10 15 0 8 -4 15 -10 15 -5 0
-10 -7 -10 -15z" />
    <path d="M380 572 c0 -5 7 -9 15 -9 8 0 15 4 15 9 0 4 -7 8 -15 8 -8 0 -15 -4
-15 -8z" />
    <path d="M730 571 l-35 -7 21 -7 c23 -8 54 0 54 14 0 5 -1 8 -2 8 -2 -1 -19
-5 -38 -8z" />
    <path d="M805 570 l-6 -10 16 0 16 0 -6 10 c-3 6 -8 10 -10 10 -2 0 -7 -4 -10
-10z" />
    <path d="M566 444 c-9 -23 -2 -28 13 -10 l12 14 -9 6 c-6 3 -13 -1 -16 -10z" />
    <path d="M590 413 c-15 -32 -21 -73 -12 -73 9 0 41 100 32 100 -4 0 -13 -12
-20 -27z" />
    <path d="M670 419 l0 -20 10 6 c6 3 10 13 10 21 0 8 -4 14 -10 14 -5 0 -10 -9
-10 -21z" />
    <path d="M527 393 c-4 -3 -7 -11 -7 -17 l0 -10 12 12 c6 6 9 14 7 17 -3 3 -9
2 -12 -2z" />
    <path d="M457 350 c-3 -11 -3 -20 -1 -20 2 0 8 9 14 20 l11 20 -9 0 c-6 0 -12
-9 -15 -20z" />
    <path d="M510 350 c0 -5 5 -10 10 -10 6 0 10 5 10 10 0 6 -4 10 -10 10 -5 0
-10 -4 -10 -10z" />
    <path d="M680 305 c0 -8 7 -15 15 -15 l14 0 -5 15 c-4 8 -10 15 -15 15 -5 0
-9 -7 -9 -15z" />
    <path d="M580 298 c0 -8 7 -15 15 -15 18 0 15 19 -3 25 -7 2 -12 -3 -12 -10z" />
    <path d="M397 283 c-8 -7 11 -33 24 -33 5 0 9 9 9 20 0 19 -20 27 -33 13z" />
    <path d="M470 225 c0 -16 16 -20 24 -6 3 5 -1 11 -9 15 l-15 5 0 -14z" />
    <path d="M791 181 l-13 -8 11 -7 c13 -8 31 1 31 15 0 11 -11 11 -29 0z" />
    <path d="M620 145 l0 -14 15 5 c8 4 15 10 15 15 0 5 -7 9 -15 9 -8 0 -15 -7
-15 -15z" />
    <path d="M865 150 c-3 -5 -1 -10 4 -10 6 0 11 5 11 10 0 6 -2 10 -4 10 -3 0
-8 -4 -11 -10z" />
    <path d="M380 140 c0 -5 5 -10 11 -10 5 0 7 5 4 10 -3 6 -8 10 -11 10 -2 0 -4
-4 -4 -10z" />
    <path d="M760 110 c0 -5 5 -10 11 -10 5 0 7 5 4 10 -3 6 -8 10 -11 10 -2 0 -4
-4 -4 -10z" />
    <path d="M510 90 c0 -5 5 -10 11 -10 5 0 7 5 4 10 -3 6 -8 10 -11 10 -2 0 -4
-4 -4 -10z" />
    <path d="M540 80 c0 -5 5 -10 11 -10 5 0 7 5 4 10 -3 6 -8 10 -11 10 -2 0 -4
-4 -4 -10z" />
    <path d="M603 73 c9 -2 25 -2 35 0 9 3 1 5 -18 5 -19 0 -27 -2 -17 -5z" />
  </g>
  <g transform="translate(0.000000,120.000000) scale(0.100000,-0.100000)" fill="#9f9786" stroke="none">
    <path d="M513 1112 l-12 -8 9 -14 10 -15 0 17 c0 9 6 19 13 21 6 3 8 6 2 6 -5
0 -15 -3 -22 -7z" />
    <path d="M569 1110 c7 -4 29 -6 49 -5 l37 1 7 -15 8 -16 -3 20 -2 19 -54 2
c-29 1 -48 -2 -42 -6z" />
    <path d="M702 1106 c7 -8 17 -12 22 -9 4 3 2 9 -5 14 -22 13 -31 11 -17 -5z" />
    <path d="M405 1090 l-6 -10 14 6 14 5 6 -21 6 -22 10 7 c6 3 11 12 11 18 l0
12 -10 -15 -10 -15 0 23 0 22 -14 0 c-8 0 -18 -4 -21 -10z" />
    <path d="M677 1081 l-6 -24 11 11 c5 5 8 16 6 23 l-4 13 -7 -23z" />
    <path d="M780 1075 l0 -26 10 6 c6 3 10 13 10 21 0 16 16 19 23 4 3 -6 4 -5 3
2 -1 7 -12 14 -24 16 l-22 3 0 -26z" />
    <path d="M337 1083 c-3 -5 6 -8 19 -8 13 0 24 3 24 8 0 4 -9 7 -19 7 -11 0
-22 -3 -24 -7z" />
    <path d="M884 1069 c0 -10 4 -19 8 -19 4 0 8 6 8 14 0 8 -4 17 -8 20 -4 2 -8
-4 -8 -15z" />
    <path d="M265 1070 l-30 -8 25 -1 c14 0 32 4 40 9 17 11 8 11 -35 0z" />
    <path d="M540 1070 c0 -5 5 -10 11 -10 5 0 7 5 4 10 -3 6 -8 10 -11 10 -2 0
-4 -4 -4 -10z" />
    <path d="M930 1070 c8 -5 26 -10 39 -10 32 0 24 6 -19 14 l-35 6 15 -10z" />
    <path d="M330 1051 c0 -6 5 -13 10 -16 l10 -6 0 15 c0 9 -4 16 -10 16 -5 0
-10 -4 -10 -9z" />
    <path d="M960 999 c0 -5 5 -7 10 -4 6 3 10 8 10 11 0 2 -4 4 -10 4 -5 0 -10
-5 -10 -11z" />
    <path d="M277 921 l-6 -24 11 11 c5 5 8 16 6 23 l-4 13 -7 -23z" />
    <path d="M780 560 c0 -5 4 -10 9 -10 6 0 13 5 16 10 l6 10 -15 0 c-9 0 -16 -4
-16 -10z" />
    <path d="M620 490 l-15 -10 12 0 c6 0 15 5 18 10 8 12 4 12 -15 0z" />
    <path d="M579 465 c-1 -3 -2 -8 -3 -12 -1 -5 -5 -15 -10 -23 -5 -8 3 -4 17 9
15 14 27 26 27 28 0 5 -30 3 -31 -2z" />
    <path d="M616 449 l-19 -19 14 0 c16 0 39 19 39 32 0 13 -14 8 -34 -13z" />
    <path d="M675 439 c-10 -30 0 -33 13 -4 l12 25 -10 0 c-5 0 -12 -9 -15 -21z" />
    <path d="M490 410 c-12 -16 -17 -30 -12 -30 10 0 52 43 52 53 0 16 -20 5 -40
-23z" />
    <path d="M510 350 c0 -5 5 -10 11 -10 5 0 7 5 4 10 -3 6 -8 10 -11 10 -2 0 -4
-4 -4 -10z" />
    <path d="M450 330 c0 -5 5 -10 11 -10 5 0 7 5 4 10 -3 6 -8 10 -11 10 -2 0 -4
-4 -4 -10z" />
    <path d="M335 302 c-6 -6 4 -22 15 -22 4 0 10 6 13 13 l5 14 -14 0 c-8 0 -16
-2 -19 -5z" />
    <path d="M570 300 c0 -5 4 -10 9 -10 6 0 13 5 16 10 l6 10 -15 0 c-9 0 -16 -4
-16 -10z" />
    <path d="M466 285 l-5 -15 14 0 c8 0 15 7 15 15 0 8 -4 15 -9 15 -5 0 -11 -7
-15 -15z" />
    <path d="M1027 279 c6 -22 23 -26 23 -5 0 8 -6 16 -14 19 l-14 6 5 -20z" />
    <path d="M221 274 l1 -19 5 13 c3 7 2 16 -1 19 -3 4 -6 -2 -5 -13z" />
    <path d="M640 275 c0 -8 7 -15 15 -15 l14 0 -5 15 c-4 8 -10 15 -15 15 -5 0
-9 -7 -9 -15z" />
    <path d="M296 271 c-3 -5 0 -11 8 -14 l14 -6 6 15 5 14 -14 0 c-7 0 -16 -4
-19 -9z" />
    <path d="M405 261 c26 -30 75 -65 81 -58 9 8 -16 48 -26 42 -4 -3 -10 0 -12 5
-2 6 -10 12 -18 13 -8 2 -22 7 -30 12 l-15 8 20 -22z" />
    <path d="M885 260 l-7 -21 12 -14 11 -13 -18 -4 -18 -4 21 -5 20 -6 1 43 c2
46 -11 59 -22 24z" />
    <path d="M930 256 l0 -14 20 5 c11 3 27 0 35 -7 l15 -12 0 10 c0 5 -14 15 -31
21 -18 6 -34 11 -35 11 -2 0 -4 -6 -4 -14z" />
    <path d="M230 240 c0 -4 7 -11 16 -14 21 -8 24 -8 24 3 0 5 -9 11 -20 14 -11
3 -20 2 -20 -3z" />
    <path d="M770 235 c0 -8 5 -15 10 -15 6 0 10 7 10 15 0 8 -4 15 -10 15 -5 0
-10 -7 -10 -15z" />
    <path d="M939 218 c-2 -32 -9 -52 -21 -59 l-13 -9 12 0 c12 0 43 50 43 70 0
14 -20 13 -21 -2z" />
    <path d="M350 204 l0 -15 10 6 c6 4 8 11 5 16 -9 14 -15 11 -15 -7z" />
    <path d="M985 209 c-12 -19 5 -23 22 -6 l17 17 -16 0 c-9 0 -20 -5 -23 -11z" />
    <path d="M260 200 c0 -5 5 -10 10 -10 6 0 10 5 10 10 0 6 -4 10 -10 10 -5 0
-10 -4 -10 -10z" />
    <path d="M300 190 c6 -11 15 -18 20 -15 13 8 0 35 -16 35 l-15 0 11 -20z" />
    <path d="M790 180 c-8 -5 -10 -10 -5 -10 6 0 17 5 25 10 8 5 11 10 5 10 -5 0
-17 -5 -25 -10z" />
    <path d="M570 150 c0 -5 5 -10 11 -10 5 0 7 -4 4 -10 l-6 -10 20 0 21 0 0 16
c0 8 -4 13 -9 9 -5 -3 -12 -1 -16 5 -8 13 -25 13 -25 0z" />
    <path d="M858 143 c7 -3 16 -2 19 1 4 3 -2 6 -13 5 l-19 -1 13 -5z" />
    <path d="M400 130 c8 -5 20 -10 25 -10 6 0 3 5 -5 10 -8 5 -19 10 -25 10 -5 0
-3 -5 5 -10z" />
    <path d="M638 123 c7 -3 16 -2 19 1 4 3 -2 6 -13 5 l-19 -1 13 -5z" />
    <path d="M780 115 c-14 -8 -20 -14 -15 -14 6 0 21 6 35 14 14 8 21 14 15 14
-5 0 -21 -6 -35 -14z" />
    <path d="M450 110 c8 -5 20 -10 25 -10 6 0 3 5 -5 10 -8 5 -19 10 -25 10 -5 0
-3 -5 5 -10z" />
    <path d="M548 73 c7 -3 16 -2 19 1 4 3 -2 6 -13 5 l-19 -1 13 -5z" />
  </g>
  <g transform="translate(0.000000,120.000000) scale(0.100000,-0.100000)" fill="#c1daf8" stroke="none">
    <path d="M949 552 l-6 -33 10 10 c5 5 7 19 5 32 l-4 24 -5 -33z" />
    <path d="M678 542 c-27 -8 -48 -20 -48 -25 l0 -9 18 7 c9 4 31 12 47 17 17 6
34 15 40 19 l9 9 -9 -1 c-6 0 -31 -8 -57 -17z" />
    <path d="M750 530 c-19 -16 -32 -29 -28 -30 4 0 16 7 25 15 10 8 27 21 38 29
11 9 15 16 10 16 -6 0 -26 -13 -45 -30z" />
    <path d="M271 509 c-1 -19 19 -81 30 -93 4 -5 1 13 -7 40 -19 65 -22 72 -23
53z" />
    <path d="M595 510 c-3 -5 -2 -10 4 -10 5 0 13 5 16 10 3 6 2 10 -4 10 -5 0
-13 -4 -16 -10z" />
    <path d="M527 472 c-15 -10 -25 -22 -23 -29 3 -7 1 -15 -4 -18 -6 -4 -10 0
-10 7 l-1 13 -24 -27 -24 -28 -51 0 -50 0 0 -11 0 -11 -15 12 -15 12 0 -10 c0
-5 7 -15 15 -22 l15 -12 0 12 0 13 49 -5 48 -5 23 29 c12 15 26 26 30 23 5 -3
11 -1 15 5 4 6 10 8 14 5 12 -7 44 32 36 44 -9 15 8 14 25 -1 l14 -13 -13 18
c-7 9 -16 17 -20 16 -3 0 -18 -8 -34 -17z" />
    <path d="M930 451 c-6 -22 -18 -48 -27 -57 l-17 -16 -40 7 c-23 3 -50 6 -61 4
-40 -3 -70 -1 -91 6 l-21 7 -7 -25 c-3 -14 -1 -38 4 -53 l11 -27 11 11 12 12
-19 13 -18 14 7 11 7 12 33 -5 c18 -3 44 -1 58 4 14 5 29 7 33 3 8 -8 12 -9
58 -12 17 -1 26 -4 20 -7 -7 -2 -13 -11 -13 -19 l0 -15 -12 7 -11 7 7 -11 c3
-6 2 -13 -3 -16 -5 -4 -13 -1 -16 4 -12 19 -52 29 -88 23 l-34 -5 0 -14 0 -15
16 8 c20 9 71 9 97 -1 l19 -7 -18 -10 c-9 -6 -15 -14 -12 -20 4 -5 1 -9 -4 -9
-6 0 -11 -5 -11 -12 0 -21 61 45 95 104 32 54 59 127 50 136 -2 2 -9 -14 -15
-37z" />
    <path d="M340 330 c0 -5 5 -10 11 -10 5 0 7 5 4 10 -3 6 -8 10 -11 10 -2 0 -4
-4 -4 -10z" />
    <path d="M370 315 c0 -18 20 -20 20 -2 l1 12 10 -17 c12 -21 29 -24 29 -4 0 7
-10 16 -22 20 -34 9 -38 8 -38 -9z" />
    <path d="M488 306 c-10 -7 -15 -16 -11 -19 3 -4 1 -7 -5 -7 l-11 0 3 -27 c2
-16 4 -29 5 -31 0 -1 11 6 23 18 12 11 28 20 35 20 7 0 13 7 13 15 0 19 -14
19 -33 0 -8 -8 -17 -11 -20 -8 -10 9 13 44 24 38 5 -4 9 -1 9 4 0 14 -11 13
-32 -3z" />
    <path d="M530 311 c0 -6 9 -9 19 -8 11 0 17 5 15 9 -7 11 -34 10 -34 -1z" />
    <path d="M573 296 c-21 -10 -33 -38 -15 -35 4 1 9 0 12 -1 3 -1 30 -4 60 -7
30 -3 57 -7 59 -9 3 -2 -4 -11 -15 -19 l-19 -14 30 -1 c17 0 37 5 45 11 l15
11 -12 5 c-26 10 -12 20 22 16 19 -2 35 0 35 5 0 8 -65 32 -88 32 -6 0 -9 -6
-6 -14 l5 -13 -25 4 c-14 3 -23 9 -20 14 3 5 0 9 -5 9 -6 0 -11 -4 -11 -9 0
-4 -11 -6 -25 -3 -14 2 -25 9 -25 14 0 5 5 6 12 2 l11 -7 -7 11 c-4 7 -8 11
-9 11 -1 -1 -12 -6 -24 -13z" />
    <path d="M420 267 c0 -19 16 -31 24 -18 3 5 -1 14 -9 21 l-15 12 0 -15z" />
    <path d="M523 230 c-13 -5 -23 -15 -23 -21 l0 -11 23 7 c12 4 46 7 75 7 57 -2
70 12 21 22 -41 8 -69 7 -96 -4z" />
    <path d="M770 230 c0 -5 5 -10 11 -10 5 0 7 5 4 10 -3 6 -8 10 -11 10 -2 0 -4
-4 -4 -10z" />
    <path d="M698 183 c-10 -2 -18 -9 -18 -14 0 -13 13 -11 36 6 19 14 14 17 -18
8z" />
    <path d="M570 164 l0 -16 23 6 c12 3 28 6 35 6 6 0 12 5 12 10 0 6 -16 10 -35
10 l-35 0 0 -16z" />
  </g>
  <g transform="translate(0.000000,120.000000) scale(0.100000,-0.100000)" fill="#698cc6" stroke="none">
    <path d="M436 555 c4 -8 12 -15 18 -15 7 0 17 -5 24 -12 16 -16 72 -20 104 -7
28 11 38 29 17 29 -5 0 -7 5 -4 10 l6 10 -85 0 -85 0 5 -15z m139 -24 c-3 -6
-11 -11 -17 -11 l-10 0 12 15 c14 17 26 13 15 -4z" />
    <path d="M270 540 c0 -11 2 -20 4 -20 2 0 6 9 9 20 3 11 1 20 -4 20 -5 0 -9
-9 -9 -20z" />
    <path d="M631 525 c-35 -13 -68 -28 -74 -34 l-11 -11 10 0 c6 0 19 7 30 15 10
8 26 15 34 15 18 2 99 38 85 39 -5 0 -39 -11 -74 -24z" />
    <path d="M759 533 l-14 -18 18 14 c16 13 21 21 13 21 -2 0 -10 -8 -17 -17z" />
    <path d="M941 504 l1 -19 5 13 c3 7 2 16 -1 19 -3 4 -6 -2 -5 -13z" />
    <path d="M540 455 l-12 -15 10 0 c12 0 26 19 19 26 -2 2 -10 -2 -17 -11z" />
    <path d="M464 418 l-19 -23 23 19 c12 11 22 21 22 23 0 8 -8 2 -26 -19z" />
    <path d="M300 414 c0 -3 15 -30 32 -60 18 -30 39 -54 47 -54 8 0 11 3 8 7 -4
3 0 11 9 18 l16 11 -31 -2 -31 -2 6 10 c4 6 0 14 -7 19 l-14 8 25 10 25 10
-22 0 c-13 1 -23 -4 -23 -10 0 -5 -5 -7 -10 -4 -6 4 -8 9 -6 13 2 4 -2 13 -10
20 -8 7 -14 10 -14 6z" />
    <path d="M664 399 c-8 -14 13 -18 30 -6 l17 13 -21 0 c-12 0 -23 -4 -26 -7z" />
    <path d="M811 381 c-8 -5 -21 -7 -29 -3 l-15 5 6 -10 c9 -15 53 -22 69 -11
l13 10 -19 -6 -18 -6 6 15 c6 17 6 18 -13 6z" />
    <path d="M876 375 l-19 -14 7 -16 c3 -9 10 -13 16 -10 6 4 8 11 5 16 -4 5 -1
9 5 9 6 0 9 4 6 9 -4 5 0 12 6 14 7 3 9 6 3 6 -5 0 -18 -6 -29 -14z" />
    <path d="M680 370 c0 -5 7 -10 15 -10 8 0 15 5 15 10 0 6 -7 10 -15 10 -8 0
-15 -4 -15 -10z" />
    <path d="M740 366 c0 -2 7 -7 16 -10 l15 -6 -6 10 c-6 10 -25 14 -25 6z" />
    <path d="M768 333 c7 -3 16 -2 19 1 4 3 -2 6 -13 5 l-19 -1 13 -5z" />
    <path d="M683 314 l-6 -17 22 -16 c12 -9 23 -24 24 -31 2 -8 6 -21 10 -27 l8
-13 -10 0 c-5 0 -17 7 -26 16 l-16 17 -12 -12 -11 -11 10 0 c6 0 19 -8 30 -19
l20 -18 19 13 19 14 -12 12 c-19 19 -14 26 13 20 l25 -4 0 16 0 17 -18 -10
-17 -9 -17 12 -17 13 12 13 12 13 -12 -7 c-7 -4 -21 -3 -30 3 l-18 10 18 6 c9
4 24 4 33 1 l15 -6 -6 10 c-3 6 -17 10 -31 10 l-25 0 -6 -16z" />
    <path d="M790 315 l-12 -15 10 0 c5 0 15 7 22 15 l12 15 -10 0 c-5 0 -15 -7
-22 -15z" />
    <path d="M835 310 c-3 -5 -3 -10 1 -10 4 0 -1 -7 -12 -15 -10 -8 -14 -15 -8
-15 6 0 19 9 28 19 l17 19 -10 6 c-5 4 -12 2 -16 -4z" />
    <path d="M405 300 c3 -5 11 -10 16 -10 6 0 7 5 4 10 -3 6 -11 10 -16 10 -6 0
-7 -4 -4 -10z" />
    <path d="M485 299 c-4 -6 1 -16 11 -23 l18 -13 -22 -7 -22 -7 1 -17 1 -17 5
13 c2 6 11 12 18 12 7 0 16 8 19 17 l7 17 -16 8 c-8 5 -13 13 -10 19 4 5 4 9
1 9 -3 0 -8 -5 -11 -11z" />
    <path d="M510 296 c0 -2 7 -9 15 -16 l15 -12 0 16 c0 9 -7 16 -15 16 -8 0 -15
-2 -15 -4z" />
    <path d="M557 293 c-14 -13 -6 -18 28 -20 l35 -2 0 11 c0 5 -7 8 -15 4 -8 -3
-15 -1 -15 4 0 11 -23 13 -33 3z" />
    <path d="M594 244 l-19 -15 25 5 c14 3 35 6 48 6 12 0 22 5 22 10 0 16 -54 12
-76 -6z" />
    <path d="M538 240 c-2 -6 -13 -12 -25 -12 l-21 -2 4 -20 c2 -11 9 -24 15 -30
l12 -11 -6 11 -7 12 26 6 26 7 -14 16 -13 17 18 -7 19 -7 -4 12 c-6 16 -25 22
-30 8z m-3 -30 l6 -10 -15 6 c-18 7 -21 14 -7 14 6 0 13 -4 16 -10z" />
    <path d="M584 164 c15 -15 69 -24 85 -15 l13 9 -11 6 c-6 4 -16 4 -23 0 l-11
-7 6 9 5 9 -37 0 -38 0 11 -11z" />
  </g>
  <g transform="translate(0.000000,120.000000) scale(0.100000,-0.100000)" fill="#152c59" stroke="none">
    <path d="M270 560 c0 -5 5 -10 11 -10 5 0 7 5 4 10 -3 6 -8 10 -11 10 -2 0 -4
-4 -4 -10z" />
    <path d="M931 543 c-1 -12 4 -25 9 -28 12 -7 12 2 0 30 l-9 20 0 -22z" />
    <path d="M720 500 c0 -5 5 -10 10 -10 6 0 10 5 10 10 0 6 -4 10 -10 10 -5 0
-10 -4 -10 -10z" />
    <path d="M334 368 l-8 -12 12 -4 c7 -2 9 -9 6 -14 l-7 -11 11 7 c5 3 12 0 15
-6 3 -7 4 -3 4 10 l-1 22 -14 0 c-7 0 -10 5 -7 10 3 6 4 10 1 10 -3 0 -8 -5
-12 -12z" />
    <path d="M660 370 c0 -6 11 -10 25 -10 14 0 25 4 25 8 0 4 -11 9 -25 10 -14 1
-25 -3 -25 -8z" />
    <path d="M775 369 c3 -3 16 -9 31 -12 l26 -5 -11 11 c-12 12 -53 18 -46 6z" />
    <path d="M415 361 c-3 -5 -2 -12 3 -15 5 -3 9 1 9 9 0 17 -3 19 -12 6z" />
    <path d="M857 354 c7 -18 30 -19 30 -1 0 7 -8 14 -18 14 l-18 2 6 -15z" />
    <path d="M827 300 c-27 -30 -26 -38 3 -20 8 5 11 10 6 10 -5 0 -1 9 9 20 10
11 16 20 13 20 -2 0 -17 -13 -31 -30z" />
    <path d="M510 307 c0 -8 7 -17 15 -21 8 -3 15 -9 14 -13 -1 -4 -1 -17 0 -28
l1 -19 12 12 c13 13 42 17 34 4 -3 -5 9 -6 26 -4 l31 5 -7 -12 -7 -11 10 0 c6
0 11 5 11 10 0 18 29 11 40 -10 l11 -20 -23 -1 -23 -1 35 -8 35 -8 7 11 7 12
-19 7 -20 7 0 21 0 20 -57 -6 -56 -7 6 15 c7 19 -18 57 -29 45 -4 -4 1 -13 11
-20 l18 -14 -16 -6 -15 -6 -8 17 c-4 9 -8 21 -8 27 -1 5 -9 11 -18 13 l-18 3
0 -14z" />
    <path d="M790 310 l-15 -10 12 0 c6 0 15 5 18 10 8 12 4 12 -15 0z" />
    <path d="M370 301 c0 -6 6 -13 12 -17 21 -13 48 -11 48 3 0 16 -12 17 -28 1
l-12 -12 0 17 c0 9 -4 17 -10 17 -5 0 -10 -4 -10 -9z" />
    <path d="M696 301 l-20 -8 17 -6 17 -6 0 10 0 11 16 -6 15 -6 -6 10 c-7 11
-12 12 -39 1z" />
    <path d="M602 288 c5 -15 28 -18 29 -3 0 6 -7 12 -17 13 l-16 4 4 -14z" />
    <path d="M477 283 c-4 -3 -7 -15 -7 -25 l0 -18 21 0 20 0 -6 10 c-4 6 -11 7
-17 4 l-10 -6 11 21 c11 20 3 29 -12 14z" />
    <path d="M710 258 c0 -8 11 -24 23 -37 l24 -22 11 13 c6 7 12 19 14 27 l3 14
-20 2 c-11 1 -28 6 -37 10 l-18 7 0 -14z m40 -20 c0 -4 -4 -8 -9 -8 -6 0 -12
4 -15 8 -3 5 1 9 9 9 8 0 15 -4 15 -9z" />
    <path d="M422 248 c2 -6 10 -14 16 -16 l12 -4 -6 16 c-7 18 -28 22 -22 4z" />
    <path d="M560 231 c0 -6 4 -13 10 -16 l10 -6 -6 15 c-7 18 -14 21 -14 7z" />
    <path d="M470 218 c0 -5 11 -13 25 -20 13 -6 22 -15 19 -19 -5 -8 3 -11 22 -8
4 0 11 -5 15 -13 l9 -13 0 13 c0 7 -7 15 -16 19 l-17 6 17 12 17 13 -16 6 -16
6 6 -10 c7 -11 -6 -13 -29 -4 -9 3 -14 9 -11 13 2 4 -2 8 -10 8 -8 0 -15 -4
-15 -9z" />
    <path d="M657 169 c-11 -6 -29 -9 -42 -7 -13 3 -29 2 -35 -2 l-11 -7 16 -13
15 -12 0 13 0 14 10 -15 10 -15 9 14 c5 7 14 10 20 7 l11 -7 0 11 c0 6 4 9 9
6 5 -3 14 1 21 9 l12 15 -13 0 c-8 0 -22 -5 -32 -11z" />
  </g>
  <g transform="translate(0.000000,120.000000) scale(0.100000,-0.100000)" fill="#beb4a2" stroke="none">
    <path d="M450 1105 c0 -7 30 -13 34 -7 3 4 -4 9 -15 9 -10 1 -19 0 -19 -2z" />
    <path d="M777 1099 c7 -7 15 -10 18 -7 3 3 -2 9 -12 12 l-18 7 12 -12z" />
    <path d="M371 1091 l-14 -9 26 1 c14 1 23 5 20 10 -6 9 -15 9 -32 -2z" />
    <path d="M827 1093 c-3 -5 11 -9 31 -11 40 -3 40 2 0 12 -15 3 -29 3 -31 -1z" />
    <path d="M660 1081 c0 -6 4 -13 10 -16 l10 -6 -6 15 c-7 18 -14 21 -14 7z" />
    <path d="M986 1057 c3 -10 9 -15 12 -12 3 3 0 11 -7 18 l-12 12 7 -18z" />
    <path d="M969 1003 l-14 -18 18 14 c9 7 17 15 17 17 0 8 -8 3 -21 -13z" />
    <path d="M635 490 c3 -5 8 -10 11 -10 2 0 4 5 4 10 0 6 -5 10 -11 10 -5 0 -7
-4 -4 -10z" />
    <path d="M576 461 l-6 -9 20 5 c23 6 26 13 6 13 -8 0 -17 -4 -20 -9z" />
    <path d="M633 455 c0 -8 4 -12 9 -9 4 3 8 9 8 15 0 5 -4 9 -8 9 -5 0 -9 -7 -9
-15z" />
    <path d="M524 435 c-4 -8 -10 -13 -15 -10 -4 3 -13 -4 -19 -15 -16 -29 2 -24
35 10 16 17 23 30 17 30 -7 0 -15 -7 -18 -15z" />
    <path d="M570 339 c0 -5 5 -7 10 -4 6 3 10 8 10 11 0 2 -4 4 -10 4 -5 0 -10
-5 -10 -11z" />
    <path d="M963 303 c9 -2 25 -2 35 0 9 3 1 5 -18 5 -19 0 -27 -2 -17 -5z" />
    <path d="M620 287 c14 -8 27 -12 30 -10 7 6 -23 23 -40 23 l-15 0 25 -13z" />
    <path d="M350 274 l0 -15 10 6 c6 4 8 11 5 16 -9 14 -15 11 -15 -7z" />
    <path d="M300 271 c0 -5 8 -15 18 -22 l17 -14 -12 16 c-7 9 -10 19 -6 22 3 4
1 7 -5 7 -7 0 -12 -4 -12 -9z" />
    <path d="M895 270 c3 -5 1 -10 -5 -10 l-11 0 7 -11 7 -11 8 13 c12 19 11 29
-2 29 -5 0 -7 -4 -4 -10z" />
    <path d="M356 241 l-17 -19 11 -7 c5 -3 7 -12 4 -18 l-7 -12 9 8 c5 5 10 13
10 18 1 5 2 10 4 12 3 4 8 37 6 37 -2 0 -11 -9 -20 -19z" />
    <path d="M230 226 c0 -8 5 -18 10 -21 l10 -6 0 20 c0 12 -4 21 -10 21 -5 0
-10 -6 -10 -14z" />
    <path d="M435 230 c3 -5 8 -10 11 -10 2 0 4 5 4 10 0 6 -5 10 -11 10 -5 0 -7
-4 -4 -10z" />
    <path d="M293 215 c0 -8 4 -15 9 -15 5 0 6 -5 2 -12 l-7 -11 11 6 c5 4 8 16 5
27 -6 23 -20 27 -20 5z" />
    <path d="M465 220 c-3 -5 -1 -10 4 -10 6 0 11 5 11 10 0 6 -2 10 -4 10 -3 0
-8 -4 -11 -10z" />
    <path d="M940 219 c0 -5 5 -7 10 -4 6 3 10 8 10 11 0 2 -4 4 -10 4 -5 0 -10
-5 -10 -11z" />
    <path d="M985 219 c-10 -14 -1 -21 19 -13 9 3 13 10 10 15 -7 12 -21 11 -29
-2z" />
    <path d="M589 138 c7 -10 22 -18 33 -18 l19 0 -6 11 c-4 6 -13 8 -20 5 -7 -2
-19 1 -26 7 l-13 12 13 -17z" />
  </g>
  <g transform="translate(0.000000,120.000000) scale(0.100000,-0.100000)" fill="#64788d" stroke="none">
    <path d="M271 564 l1 -19 5 13 c3 7 2 16 -1 19 -3 4 -6 -2 -5 -13z" />
    <path d="M375 570 c-3 -5 -1 -10 4 -10 6 0 11 5 11 10 0 6 -2 10 -4 10 -3 0
-8 -4 -11 -10z" />
    <path d="M400 572 l0 -11 141 -3 c77 -2 148 0 157 4 9 4 -30 7 -88 7 -58 1
-129 4 -157 7 l-53 7 0 -11z" />
    <path d="M786 555 c-11 -8 -15 -15 -9 -15 6 0 16 7 23 15 16 19 11 19 -14 0z" />
    <path d="M715 550 l-6 -10 15 6 c18 7 21 14 7 14 -6 0 -13 -4 -16 -10z" />
    <path d="M580 499 c0 -5 5 -7 10 -4 6 3 10 8 10 11 0 2 -4 4 -10 4 -5 0 -10
-5 -10 -11z" />
    <path d="M702 480 c-13 -16 -19 -30 -15 -29 11 0 56 59 46 59 -5 0 -19 -13
-31 -30z" />
    <path d="M525 440 l-6 -10 15 6 c18 7 21 14 7 14 -6 0 -13 -4 -16 -10z" />
    <path d="M486 403 l-7 -18 12 12 c7 7 10 15 7 18 -3 3 -9 -2 -12 -12z" />
    <path d="M669 413 c0 -5 -2 -18 -5 -30 l-4 -22 16 6 15 6 -10 10 c-5 5 -7 16
-4 23 3 8 2 14 -1 14 -3 0 -6 -3 -7 -7z" />
    <path d="M428 383 c7 -3 16 -2 19 1 4 3 -2 6 -13 5 l-19 -1 13 -5z" />
    <path d="M365 300 c3 -5 8 -10 11 -10 2 0 4 5 4 10 0 6 -5 10 -11 10 -5 0 -7
-4 -4 -10z" />
    <path d="M560 300 c0 -5 -6 -10 -14 -10 -8 0 -16 -7 -20 -15 -10 -27 17 -16
43 18 l13 17 -11 0 c-6 0 -11 -4 -11 -10z" />
    <path d="M584 282 c3 -5 0 -13 -6 -15 l-13 -5 12 -1 c17 -1 25 16 12 25 l-12
7 7 -11z" />
    <path d="M620 280 l-15 -9 22 2 c12 0 19 5 17 9 -6 10 -6 10 -24 -2z" />
    <path d="M706 275 l7 -18 -21 5 c-12 4 -25 2 -28 -3 -3 -5 1 -9 8 -10 7 0 21
-2 30 -4 22 -4 31 20 12 36 l-14 12 6 -18z" />
    <path d="M423 261 c1 -14 9 -26 17 -28 l15 -5 -13 10 c-8 5 -13 12 -12 16 1 4
-1 12 -4 19 -3 6 -4 1 -3 -12z" />
    <path d="M470 261 c0 -25 6 -27 13 -6 4 8 2 17 -3 20 l-10 6 0 -20z" />
    <path d="M470 221 c0 -6 4 -13 10 -16 l10 -6 -6 15 c-7 18 -14 21 -14 7z" />
    <path d="M755 219 c-11 -17 1 -21 15 -4 l12 15 -10 0 c-6 0 -14 -5 -17 -11z" />
    <path d="M695 175 l-30 -25 32 17 c18 10 33 21 33 26 0 10 -2 9 -35 -18z" />
    <path d="M510 176 c0 -2 7 -7 16 -10 l15 -6 -6 10 c-6 10 -25 14 -25 6z" />
  </g>
  <g transform="translate(0.000000,120.000000) scale(0.100000,-0.100000)" fill="#8e5e3b" stroke="none">
    <path d="M527 993 c-4 -3 -7 -11 -7 -17 l0 -10 12 12 c6 6 9 14 7 17 -3 3 -9
2 -12 -2z" />
    <path d="M576 931 c5 -5 25 -11 44 -13 l35 -3 0 -20 0 -20 -27 -3 -27 -3 6
-15 5 -14 -21 0 c-12 0 -21 -4 -21 -10 0 -5 -6 -10 -14 -10 -7 0 -20 -8 -27
-17 l-14 -18 17 13 c9 7 41 16 70 19 l53 5 28 -22 27 -21 0 -21 c0 -12 7 -30
16 -40 l17 -18 -13 -14 c-6 -9 -10 -21 -7 -28 l4 -13 13 28 c7 15 18 27 24 27
6 0 2 7 -8 15 -11 8 -21 25 -23 37 -5 30 -30 56 -73 75 l-35 16 17 4 c9 2 19
16 22 30 l7 25 -10 12 c-6 7 -8 16 -4 19 3 4 -16 7 -42 7 l-49 0 10 -9z" />
    <path d="M541 906 l-12 -15 21 -21 22 -22 10 10 10 10 -21 7 c-24 7 -26 16 -9
33 l12 12 -11 0 c-6 0 -16 -6 -22 -14z" />
    <path d="M696 624 c-11 -8 -16 -14 -10 -14 13 0 39 18 34 24 -3 2 -14 -2 -24
-10z" />
    <path d="M340 285 l13 -16 -29 6 -29 5 20 -9 c11 -5 26 -10 33 -10 18 -1 15
26 -4 33 l-17 6 13 -15z" />
    <path d="M896 264 c-8 -20 -8 -19 20 -28 l22 -7 5 21 5 20 -15 0 -14 0 6 -12
c4 -7 0 -5 -8 5 l-15 18 -6 -17z" />
    <path d="M993 236 c3 -7 0 -19 -6 -25 l-11 -11 12 0 c6 0 16 9 21 19 l11 19
-16 6 -16 6 5 -14z" />
    <path d="M240 219 c0 -5 5 -7 10 -4 6 3 10 8 10 11 0 2 -4 4 -10 4 -5 0 -10
-5 -10 -11z" />
    <path d="M310 195 c14 -16 50 -21 50 -6 0 5 -9 7 -20 4 l-20 -5 0 11 c0 6 -5
11 -11 11 l-11 0 12 -15z" />
    <path d="M920 200 l-25 -8 22 -1 c12 -1 25 4 28 9 3 6 5 10 3 9 -2 -1 -14 -5
-28 -9z" />
  </g>
  <g transform="translate(0.000000,120.000000) scale(0.100000,-0.100000)" fill="#9fb5db" stroke="none">
    <path d="M546 453 l-7 -18 12 12 c7 7 10 15 7 18 -3 3 -9 -2 -12 -12z" />
    <path d="M663 379 c-2 -23 3 -25 10 -4 4 8 3 16 -1 19 -4 3 -9 -4 -9 -15z" />
    <path d="M378 383 c7 -3 16 -2 19 1 4 3 -2 6 -13 5 l-19 -1 13 -5z" />
    <path d="M728 363 c7 -3 16 -2 19 1 4 3 -2 6 -13 5 l-19 -1 13 -5z" />
    <path d="M848 363 c7 -3 16 -2 19 1 4 3 -2 6 -13 5 l-19 -1 13 -5z" />
    <path d="M685 320 c-3 -5 -1 -10 4 -10 6 0 11 5 11 10 0 6 -2 10 -4 10 -3 0
-8 -4 -11 -10z" />
    <path d="M518 313 c7 -3 16 -2 19 1 4 3 -2 6 -13 5 l-19 -1 13 -5z" />
    <path d="M375 290 c10 -11 20 -20 23 -20 3 0 -3 9 -13 20 -10 11 -20 20 -23
20 -3 0 3 -9 13 -20z" />
    <path d="M421 284 l1 -19 5 13 c3 7 2 16 -1 19 -3 4 -6 -2 -5 -13z" />
    <path d="M510 268 c0 -10 9 -9 35 2 l20 9 -27 -2 c-16 -1 -28 -5 -28 -9z" />
    <path d="M470 262 c0 -5 7 -9 15 -9 8 0 12 4 9 9 -3 4 -9 8 -15 8 -5 0 -9 -4
-9 -8z" />
    <path d="M710 240 c13 -11 25 -20 28 -20 3 0 -3 9 -13 20 -10 11 -23 20 -28
20 -6 0 0 -9 13 -20z" />
    <path d="M560 230 c0 -5 7 -7 15 -4 8 4 15 8 15 10 0 2 -7 4 -15 4 -8 0 -15
-4 -15 -10z" />
    <path d="M620 220 l-15 -10 12 0 c6 0 15 5 18 10 8 12 4 12 -15 0z" />
    <path d="M690 220 c0 -5 5 -10 11 -10 5 0 7 5 4 10 -3 6 -8 10 -11 10 -2 0 -4
-4 -4 -10z" />
    <path d="M759 213 l-14 -18 18 14 c16 13 21 21 13 21 -2 0 -10 -8 -17 -17z" />
  </g>
  <g transform="translate(0.000000,120.000000) scale(0.100000,-0.100000)" fill="#832616" stroke="none">
    <path d="M565 920 l-20 -9 58 0 58 -1 -6 10 c-7 12 -62 12 -90 0z" />
    <path d="M530 889 c0 -5 5 -7 10 -4 6 3 10 8 10 11 0 2 -4 4 -10 4 -5 0 -10
-5 -10 -11z" />
    <path d="M583 863 c15 -2 39 -2 55 0 15 2 2 4 -28 4 -30 0 -43 -2 -27 -4z" />
    <path d="M318 245 c-20 -27 -23 -45 -8 -45 6 0 10 6 10 14 0 8 4 17 9 20 l9 6
-5 -22 -6 -23 20 25 c21 25 20 50 -1 50 -6 0 -19 -11 -28 -25z" />
    <path d="M890 243 c0 -16 16 -30 38 -35 l22 -6 0 12 c0 7 -5 17 -12 24 -13 13
-48 16 -48 5z" />
    <path d="M240 230 c0 -5 5 -10 10 -10 6 0 10 5 10 10 0 6 -4 10 -10 10 -5 0
-10 -4 -10 -10z" />
    <path d="M990 225 c0 -8 5 -15 10 -15 6 0 10 7 10 15 0 8 -4 15 -10 15 -5 0
-10 -7 -10 -15z" />
  </g>
</svg>