<svg width="279" height="50" viewBox="0 0 279 50" fill="none" xmlns="http://www.w3.org/2000/svg">
<path d="M1.296 32.02V18.61H6.3C7.212 18.61 8.016 18.778 8.712 19.114C9.42 19.438 9.972 19.918 10.368 20.554C10.764 21.178 10.962 21.94 10.962 22.84C10.962 23.728 10.758 24.49 10.35 25.126C9.954 25.75 9.408 26.23 8.712 26.566C8.016 26.902 7.212 27.07 6.3 27.07H3.744V32.02H1.296ZM3.744 24.91H6.336C6.78 24.91 7.164 24.826 7.488 24.658C7.812 24.478 8.064 24.232 8.244 23.92C8.424 23.608 8.514 23.248 8.514 22.84C8.514 22.42 8.424 22.06 8.244 21.76C8.064 21.448 7.812 21.208 7.488 21.04C7.164 20.86 6.78 20.77 6.336 20.77H3.744V24.91ZM17.2063 32.236C16.2463 32.236 15.3703 32.014 14.5783 31.57C13.7983 31.126 13.1743 30.52 12.7063 29.752C12.2503 28.984 12.0223 28.108 12.0223 27.124C12.0223 26.14 12.2503 25.264 12.7063 24.496C13.1743 23.728 13.7983 23.122 14.5783 22.678C15.3583 22.234 16.2343 22.012 17.2063 22.012C18.1663 22.012 19.0363 22.234 19.8163 22.678C20.5963 23.122 21.2143 23.728 21.6703 24.496C22.1383 25.252 22.3723 26.128 22.3723 27.124C22.3723 28.108 22.1383 28.984 21.6703 29.752C21.2023 30.52 20.5783 31.126 19.7983 31.57C19.0183 32.014 18.1543 32.236 17.2063 32.236ZM17.2063 30.076C17.7343 30.076 18.1963 29.95 18.5923 29.698C19.0003 29.446 19.3183 29.098 19.5463 28.654C19.7863 28.198 19.9063 27.688 19.9063 27.124C19.9063 26.548 19.7863 26.044 19.5463 25.612C19.3183 25.168 19.0003 24.82 18.5923 24.568C18.1963 24.304 17.7343 24.172 17.2063 24.172C16.6663 24.172 16.1923 24.304 15.7843 24.568C15.3763 24.82 15.0523 25.168 14.8123 25.612C14.5843 26.044 14.4703 26.548 14.4703 27.124C14.4703 27.688 14.5843 28.198 14.8123 28.654C15.0523 29.098 15.3763 29.446 15.7843 29.698C16.1923 29.95 16.6663 30.076 17.2063 30.076ZM26.4507 32.02L23.0847 22.228H25.5687L28.0347 29.662L27.1707 29.644L29.7987 22.228H31.8867L34.4967 29.644L33.6327 29.662L36.0987 22.228H38.5827L35.2167 32.02H33.1107L30.4467 24.262H31.2387L28.5387 32.02H26.4507ZM44.3436 32.236C43.3356 32.236 42.4536 32.008 41.6976 31.552C40.9416 31.096 40.3536 30.478 39.9336 29.698C39.5136 28.918 39.3036 28.054 39.3036 27.106C39.3036 26.122 39.5136 25.252 39.9336 24.496C40.3656 23.728 40.9476 23.122 41.6796 22.678C42.4236 22.234 43.2516 22.012 44.1636 22.012C44.9316 22.012 45.6036 22.138 46.1796 22.39C46.7676 22.642 47.2656 22.99 47.6736 23.434C48.0816 23.878 48.3936 24.388 48.6096 24.964C48.8256 25.528 48.9336 26.14 48.9336 26.8C48.9336 26.968 48.9216 27.142 48.8976 27.322C48.8856 27.502 48.8556 27.658 48.8076 27.79H41.2476V25.99H47.4756L46.3596 26.836C46.4676 26.284 46.4376 25.792 46.2696 25.36C46.1136 24.928 45.8496 24.586 45.4776 24.334C45.1176 24.082 44.6796 23.956 44.1636 23.956C43.6716 23.956 43.2336 24.082 42.8496 24.334C42.4656 24.574 42.1716 24.934 41.9676 25.414C41.7756 25.882 41.7036 26.452 41.7516 27.124C41.7036 27.724 41.7816 28.258 41.9856 28.726C42.2016 29.182 42.5136 29.536 42.9216 29.788C43.3416 30.04 43.8216 30.166 44.3616 30.166C44.9016 30.166 45.3576 30.052 45.7296 29.824C46.1136 29.596 46.4136 29.29 46.6296 28.906L48.5376 29.842C48.3456 30.31 48.0456 30.724 47.6376 31.084C47.2296 31.444 46.7436 31.726 46.1796 31.93C45.6276 32.134 45.0156 32.236 44.3436 32.236ZM50.721 32.02V22.228H52.935V24.406L52.755 24.082C52.983 23.35 53.337 22.84 53.817 22.552C54.309 22.264 54.897 22.12 55.581 22.12H56.157V24.208H55.311C54.639 24.208 54.099 24.418 53.691 24.838C53.283 25.246 53.079 25.822 53.079 26.566V32.02H50.721ZM62.0975 32.236C61.0895 32.236 60.2075 32.008 59.4515 31.552C58.6955 31.096 58.1075 30.478 57.6875 29.698C57.2675 28.918 57.0575 28.054 57.0575 27.106C57.0575 26.122 57.2675 25.252 57.6875 24.496C58.1195 23.728 58.7015 23.122 59.4335 22.678C60.1775 22.234 61.0055 22.012 61.9175 22.012C62.6855 22.012 63.3575 22.138 63.9335 22.39C64.5215 22.642 65.0195 22.99 65.4275 23.434C65.8355 23.878 66.1475 24.388 66.3635 24.964C66.5795 25.528 66.6875 26.14 66.6875 26.8C66.6875 26.968 66.6755 27.142 66.6515 27.322C66.6395 27.502 66.6095 27.658 66.5615 27.79H59.0015V25.99H65.2295L64.1135 26.836C64.2215 26.284 64.1915 25.792 64.0235 25.36C63.8675 24.928 63.6035 24.586 63.2315 24.334C62.8715 24.082 62.4335 23.956 61.9175 23.956C61.4255 23.956 60.9875 24.082 60.6035 24.334C60.2195 24.574 59.9255 24.934 59.7215 25.414C59.5295 25.882 59.4575 26.452 59.5055 27.124C59.4575 27.724 59.5355 28.258 59.7395 28.726C59.9555 29.182 60.2675 29.536 60.6755 29.788C61.0955 30.04 61.5755 30.166 62.1155 30.166C62.6555 30.166 63.1115 30.052 63.4835 29.824C63.8675 29.596 64.1675 29.29 64.3835 28.906L66.2915 29.842C66.0995 30.31 65.7995 30.724 65.3915 31.084C64.9835 31.444 64.4975 31.726 63.9335 31.93C63.3815 32.134 62.7695 32.236 62.0975 32.236ZM73.029 32.236C72.081 32.236 71.235 32.014 70.491 31.57C69.747 31.114 69.159 30.496 68.727 29.716C68.295 28.936 68.079 28.072 68.079 27.124C68.079 26.164 68.295 25.3 68.727 24.532C69.159 23.764 69.747 23.152 70.491 22.696C71.247 22.24 72.087 22.012 73.011 22.012C73.755 22.012 74.415 22.162 74.991 22.462C75.579 22.75 76.041 23.158 76.377 23.686L76.017 24.172V18.394H78.375V32.02H76.143V30.13L76.395 30.598C76.059 31.126 75.591 31.534 74.991 31.822C74.391 32.098 73.737 32.236 73.029 32.236ZM73.281 30.076C73.821 30.076 74.295 29.95 74.703 29.698C75.111 29.446 75.429 29.098 75.657 28.654C75.897 28.21 76.017 27.7 76.017 27.124C76.017 26.56 75.897 26.056 75.657 25.612C75.429 25.156 75.111 24.802 74.703 24.55C74.295 24.298 73.821 24.172 73.281 24.172C72.753 24.172 72.279 24.304 71.859 24.568C71.439 24.82 71.109 25.168 70.869 25.612C70.641 26.044 70.527 26.548 70.527 27.124C70.527 27.7 70.641 28.21 70.869 28.654C71.109 29.098 71.439 29.446 71.859 29.698C72.279 29.95 72.753 30.076 73.281 30.076ZM89.1139 32.236C88.4059 32.236 87.7519 32.098 87.1519 31.822C86.5639 31.534 86.0959 31.126 85.7479 30.598L85.9819 30.13V32.02H83.7679V18.394H86.1259V24.172L85.7659 23.686C86.1019 23.158 86.5579 22.75 87.1339 22.462C87.7099 22.162 88.3759 22.012 89.1319 22.012C90.0559 22.012 90.8899 22.24 91.6339 22.696C92.3779 23.152 92.9659 23.764 93.3979 24.532C93.8419 25.3 94.0639 26.164 94.0639 27.124C94.0639 28.072 93.8479 28.936 93.4159 29.716C92.9839 30.496 92.3959 31.114 91.6519 31.57C90.9079 32.014 90.0619 32.236 89.1139 32.236ZM88.8439 30.076C89.3839 30.076 89.8639 29.95 90.2839 29.698C90.7039 29.446 91.0279 29.098 91.2559 28.654C91.4959 28.21 91.6159 27.7 91.6159 27.124C91.6159 26.548 91.4959 26.044 91.2559 25.612C91.0279 25.168 90.7039 24.82 90.2839 24.568C89.8639 24.304 89.3839 24.172 88.8439 24.172C88.3279 24.172 87.8599 24.298 87.4399 24.55C87.0319 24.802 86.7079 25.156 86.4679 25.612C86.2399 26.056 86.1259 26.56 86.1259 27.124C86.1259 27.7 86.2399 28.21 86.4679 28.654C86.7079 29.098 87.0319 29.446 87.4399 29.698C87.8599 29.95 88.3279 30.076 88.8439 30.076ZM96.8739 35.998C96.6099 35.998 96.3519 35.974 96.0999 35.926C95.8479 35.89 95.6199 35.824 95.4159 35.728V33.748C95.5719 33.784 95.7579 33.82 95.9739 33.856C96.2019 33.892 96.4119 33.91 96.6039 33.91C97.1439 33.91 97.5339 33.784 97.7739 33.532C98.0259 33.28 98.2479 32.95 98.4399 32.542L99.0879 31.03L99.0519 33.01L94.7859 22.228H97.3239L100.312 30.184H99.4119L102.382 22.228H104.938L100.672 33.01C100.42 33.646 100.114 34.186 99.7539 34.63C99.3939 35.074 98.9739 35.41 98.4939 35.638C98.0259 35.878 97.4859 35.998 96.8739 35.998Z" fill="#6E82A5"/>
<path d="M155.74 14.0001H144.851V35.63H155.74C161.754 35.63 166.63 30.788 166.63 24.815C166.63 18.8421 161.754 14.0001 155.74 14.0001ZM151.188 18.2832C151.257 18.0714 151.449 17.9163 151.687 17.9119C153.065 17.8868 154.443 17.8669 155.821 17.8484C155.922 17.8469 156.027 17.858 156.123 17.8861C156.38 17.9606 156.531 18.2183 156.488 18.487C156.447 18.7535 156.217 18.9344 155.925 18.9388C155.219 18.9491 152.415 18.9816 151.72 18.9868C151.328 18.989 151.071 18.6413 151.188 18.2832ZM149.968 20.117C150.054 20.0956 150.146 20.0904 150.235 20.0882C151.183 20.0705 154.985 19.9989 155.937 20.0225C156.904 20.0461 157.772 20.399 158.546 20.9726C158.8 21.1608 158.849 21.4923 158.67 21.7322C158.491 21.9744 158.165 22.029 157.904 21.84C157.35 21.4384 156.739 21.1837 156.056 21.1092C155.848 21.0863 155.637 21.0848 155.427 21.0878C153.712 21.1143 151.997 21.1446 150.282 21.1712C150.175 21.1726 150.064 21.1719 149.961 21.1476C149.732 21.0929 149.567 20.8655 149.569 20.6293C149.571 20.3901 149.735 20.1738 149.968 20.117ZM149.049 22.2697C149.109 22.266 149.169 22.266 149.229 22.2652C150.297 22.2475 151.365 22.2298 152.432 22.2113C153.464 22.1944 154.495 22.1737 155.527 22.1604C156.925 22.1427 158.03 23.0433 158.294 24.4075C158.582 25.9017 157.396 27.4468 155.865 27.5243C155.124 27.562 154.379 27.5243 153.635 27.5044C153.281 27.4948 153.069 27.2541 153.088 26.9308C153.105 26.62 153.359 26.4192 153.711 26.4273C154.364 26.4414 155.018 26.4642 155.671 26.4576C156.355 26.4502 156.935 26.0132 157.153 25.3776C157.373 24.7346 157.174 24.0311 156.646 23.6021C156.315 23.3334 155.932 23.233 155.508 23.2412C153.421 23.2803 151.333 23.3128 149.246 23.3475C149.179 23.3482 149.113 23.3526 149.048 23.3482C148.741 23.3275 148.519 23.0942 148.523 22.7982C148.527 22.5081 148.745 22.2888 149.049 22.2697ZM151.973 25.4507C151.608 25.4566 151.367 25.2454 151.362 24.9206C151.357 24.5958 151.59 24.3795 151.957 24.3729C152.556 24.3618 153.155 24.3522 153.755 24.3426C154.354 24.3323 154.953 24.3219 155.553 24.3131C155.917 24.3079 156.16 24.5198 156.166 24.8431C156.17 25.1679 155.937 25.3842 155.569 25.3909C154.371 25.4115 153.172 25.4315 151.973 25.4507ZM149.07 24.4245C149.285 24.4135 149.501 24.4112 149.716 24.4208C150.046 24.4356 150.268 24.6733 150.259 24.9856C150.251 25.2757 150.022 25.4883 149.704 25.4994C149.608 25.5023 149.189 25.5031 149.076 25.4972C148.791 25.4817 148.561 25.2344 148.564 24.9546C148.568 24.6785 148.789 24.4393 149.07 24.4245ZM148.597 27.1227C148.592 26.809 148.828 26.5787 149.175 26.5713C149.828 26.5573 150.481 26.5462 151.134 26.5381C151.478 26.5336 151.727 26.7603 151.732 27.0703C151.737 27.3863 151.506 27.6078 151.152 27.6173C150.823 27.6262 150.493 27.6292 150.164 27.6343C149.84 27.6395 149.517 27.6476 149.193 27.6498C148.841 27.6528 148.602 27.438 148.597 27.1227ZM150.222 29.7877C149.929 29.756 149.718 29.5345 149.715 29.2562C149.712 28.9772 149.918 28.7513 150.21 28.7151C150.282 28.7062 150.354 28.707 150.426 28.7055C152.153 28.676 153.881 28.6509 155.609 28.6176C157.347 28.5844 158.766 27.5413 159.249 25.9423C159.483 25.1672 159.461 24.3935 159.209 23.6221C159.163 23.4826 159.15 23.3142 159.18 23.1725C159.229 22.9459 159.442 22.8137 159.678 22.8108C159.918 22.8078 160.11 22.9392 160.199 23.1762C160.413 23.7461 160.517 24.3367 160.497 24.9442C160.423 27.1973 158.94 29.0303 156.742 29.5633C156.373 29.6526 155.984 29.6859 155.603 29.7006C154.812 29.7316 154.02 29.7324 153.227 29.7457C152.292 29.7612 151.356 29.7774 150.42 29.7922C150.354 29.7922 150.288 29.7944 150.222 29.7877ZM159.105 30.9386C158.595 31.2324 158.057 31.4775 157.482 31.6008C156.927 31.7197 156.361 31.8215 155.797 31.8452C154.527 31.8983 153.254 31.8998 151.982 31.9182C151.562 31.9242 151.289 31.5853 151.406 31.2147C151.478 30.9873 151.671 30.8463 151.939 30.8412C152.652 30.8264 155.448 30.7799 156.13 30.7445C156.968 30.7002 157.749 30.4388 158.489 30.0483C158.607 29.9863 158.746 29.9376 158.876 29.9339C159.112 29.9273 159.312 30.1052 159.372 30.3296C159.435 30.5636 159.334 30.8065 159.105 30.9386ZM162.666 24.976C162.645 26.5573 162.121 27.9732 161.132 29.2171C161.018 29.361 160.877 29.4489 160.668 29.4548C160.474 29.4533 160.303 29.364 160.203 29.1735C160.095 28.9653 160.112 28.7564 160.26 28.5704C160.604 28.1378 160.89 27.6727 161.108 27.1656C162.393 24.1846 160.985 20.6921 157.981 19.4112C157.949 19.3972 157.915 19.3847 157.882 19.3699C157.551 19.226 157.414 18.927 157.543 18.6339C157.669 18.3467 157.975 18.2389 158.3 18.3718C159.177 18.7306 159.953 19.24 160.616 19.9132C162 21.3196 162.693 23.0116 162.666 24.976Z" fill="#03CEA4"/>
<path d="M177 21.5534C176.492 22.213 176.196 23.008 176.145 23.8368L176.141 23.8774C176.141 24.1987 175.906 24.4626 175.616 24.4626H172.222C171.933 24.4626 171.698 24.2021 171.698 23.8774L171.694 23.8402C171.643 23.0012 171.323 22.1995 170.778 21.5534V23.8841C170.778 24.7197 171.388 25.3962 172.141 25.3962H172.362L172.4 25.8529C172.424 26.1337 172.56 26.3908 172.771 26.5836C173.068 26.8508 173.258 27.277 173.258 27.754C173.258 27.7811 173.258 27.8081 173.255 27.8352C173.245 28.0551 173.419 28.2411 173.64 28.2411H174.134C174.356 28.2411 174.529 28.0551 174.519 27.8352C174.519 27.8081 174.516 27.7811 174.516 27.754C174.516 27.277 174.707 26.8508 175.003 26.5836C175.214 26.3941 175.351 26.1337 175.375 25.8529L175.412 25.3962H175.634C176.387 25.3962 176.997 24.7197 176.997 23.8841L177 21.5534Z" fill="#FF7467"/>
<path d="M171.619 25.6331C171.411 25.8394 171.323 26.1236 171.347 26.4179C171.643 26.4415 171.929 26.3536 172.137 26.1472C172.345 25.9409 172.434 25.6568 172.41 25.3625C172.117 25.3388 171.827 25.4267 171.619 25.6331Z" fill="#FF7467"/>
<path d="M175.388 25.3625C175.364 25.6568 175.453 25.9409 175.661 26.1472C175.869 26.3536 176.155 26.4415 176.451 26.4179C176.475 26.1236 176.387 25.8394 176.179 25.6331C175.974 25.4267 175.685 25.3388 175.388 25.3625Z" fill="#FF7467"/>
<path d="M145.539 5.21346C145.501 6.12844 145.053 6.9445 144.38 7.47618C144.256 7.5751 144.119 7.67402 143.969 7.7482C143.471 8.03259 142.898 8.18096 142.288 8.14387C140.569 8.06968 139.249 6.62302 139.323 4.92907C139.361 4.00173 139.822 3.18567 140.507 2.64162C140.619 2.55507 140.731 2.48089 140.855 2.4067C141.354 2.10995 141.951 1.96157 142.574 1.9863C144.293 2.06049 145.626 3.50715 145.539 5.21346Z" fill="#03CEA4"/>
<path d="M175.902 12.6678C175.828 14.3606 174.382 15.6608 172.677 15.5872C171.787 15.5504 171.009 15.1456 170.477 14.52C170.366 14.3728 170.267 14.2134 170.156 14.0662C166.77 9.50306 161.408 6.43646 155.254 6.15433C154.686 6.1298 154.117 6.1298 153.561 6.14206C153.376 6.15433 153.203 6.15433 153.017 6.1666C153.005 6.1666 152.993 6.1666 152.98 6.1666C151.275 6.093 149.965 4.65783 150.04 2.96506C150.114 1.43176 151.3 0.217388 152.795 0.0579248C152.906 0.0456584 153.005 0.0456584 153.116 0.0456584C153.24 0.0456584 153.351 0.033392 153.475 0.033392C154.154 0.00885918 154.846 0.0211256 155.538 0.0456584C163.483 0.413651 170.428 4.31437 174.888 10.1532C175.012 10.3126 175.123 10.4598 175.234 10.6193L175.247 10.6316C175.296 10.6929 175.346 10.7665 175.395 10.8401C175.741 11.3676 175.926 11.9931 175.902 12.6678Z" fill="#44A1A0"/>
<path d="M175.902 36.3722C175.828 34.6795 174.382 33.3792 172.677 33.4528C171.787 33.4896 171.009 33.8944 170.477 34.52C170.366 34.6672 170.267 34.8267 170.156 34.9739C166.77 39.537 161.408 42.6036 155.254 42.8857C154.686 42.9102 154.117 42.9102 153.561 42.898C153.376 42.8857 153.203 42.8857 153.017 42.8734C153.005 42.8734 152.993 42.8734 152.98 42.8734C151.275 42.947 149.965 44.3822 150.04 46.075C150.114 47.6083 151.3 48.8227 152.795 48.9821C152.906 48.9944 153.005 48.9944 153.116 48.9944C153.24 48.9944 153.351 49.0066 153.475 49.0066C154.154 49.0312 154.846 49.0189 155.538 48.9944C163.483 48.6264 170.428 44.7257 174.888 38.8869C175.012 38.7274 175.123 38.5802 175.234 38.4207L175.247 38.4085C175.296 38.3471 175.346 38.2735 175.395 38.1999C175.741 37.6725 175.926 37.0469 175.902 36.3722Z" fill="#44A1A0"/>
<path d="M139.862 35.8093C139.71 37.497 138.207 38.7307 136.507 38.5681C135.522 38.4745 134.681 37.9331 134.184 37.1616C134.138 37.0859 134.092 37.0101 134.059 36.9349C131.526 32.5475 130.279 27.3585 130.775 21.929C131.087 18.6277 132.008 15.5259 133.435 12.7293C133.992 11.637 135.174 10.9413 136.467 11.0611C138.155 11.211 139.41 12.7043 139.247 14.3792C139.218 14.7462 139.115 15.0977 138.965 15.4101C138.938 15.4458 138.924 15.4943 138.897 15.5299C138.871 15.5655 138.857 15.614 138.842 15.6502C137.806 17.7523 137.132 20.0548 136.909 22.4883C136.523 26.6089 137.468 30.5441 139.393 33.8849C139.439 33.9607 139.485 34.0364 139.519 34.1116C139.792 34.6274 139.914 35.21 139.862 35.8093Z" fill="#03CEA4"/>
<path d="M145.486 44.34C145.412 46.0328 143.966 47.333 142.261 47.2594C140.778 47.1858 139.58 46.0941 139.357 44.6835C139.333 44.5118 139.32 44.34 139.32 44.156C139.32 44.1192 139.32 44.0824 139.32 44.0456C139.394 42.3529 140.84 41.0527 142.545 41.1263C144.065 41.1999 145.276 42.3406 145.461 43.7881V43.8003C145.474 43.9107 145.486 44.0088 145.486 44.1192C145.486 44.2051 145.486 44.2664 145.486 44.34Z" fill="#03CEA4"/>
<path d="M189.274 12.1818C189.274 12.9768 189.547 13.6193 190.106 14.0875C190.664 14.5558 191.365 14.7954 192.23 14.7954C193.094 14.7954 193.795 14.5558 194.353 14.0875C194.912 13.6193 195.185 12.9768 195.185 12.1818V7.02002H193.434V12.0294C193.434 12.7372 193.029 13.0966 192.23 13.0966C191.43 13.0966 191.025 12.7372 191.025 12.0294V7.02002H189.274V12.1818Z" fill="#44A1A0"/>
<path d="M201.813 11.1582L198.857 7.02002H197.543V14.6429H199.295V10.5048L202.251 14.6429H203.565V7.02002H201.813V11.1582Z" fill="#44A1A0"/>
<path d="M205.972 14.6429H207.724V7.02002H205.972V14.6429Z" fill="#44A1A0"/>
<path d="M209.588 7.02002V8.69706H211.558V14.6429H213.31V8.69706H215.281V7.02002H209.588Z" fill="#44A1A0"/>
<path d="M218.894 11.6155H221.631V9.96028H218.894V8.69706H221.904V7.02002H217.142V14.6429H221.959V12.9659H218.894V11.6155Z" fill="#44A1A0"/>
<path d="M227.874 7.02002V14.6429H230.939C232.001 14.6429 232.877 14.2836 233.588 13.5539C234.3 12.8243 234.661 11.9096 234.661 10.8315C234.661 9.75337 234.3 8.84952 233.588 8.1199C232.877 7.39028 232.001 7.02002 230.939 7.02002H227.874ZM229.625 12.9659V8.69706H230.939C231.541 8.69706 232.034 8.89308 232.406 9.28511C232.789 9.66626 232.975 10.189 232.975 10.8315C232.975 11.474 232.789 11.9967 232.406 12.3887C232.034 12.7699 231.541 12.9659 230.939 12.9659H229.625Z" fill="#44A1A0"/>
<path d="M238.493 11.6155H241.229V9.96028H238.493V8.69706H241.503V7.02002H236.741V14.6429H241.558V12.9659H238.493V11.6155Z" fill="#44A1A0"/>
<path d="M193.073 24.0082V25.5328H195.12C194.824 26.3168 194.178 26.7089 193.16 26.7089C192.427 26.7089 191.846 26.502 191.408 26.0882C190.971 25.6635 190.752 25.1299 190.752 24.4656C190.752 23.8013 190.96 23.2459 191.387 22.8212C191.814 22.3965 192.361 22.1787 193.007 22.1787C193.839 22.1787 194.539 22.549 194.879 23.0717L196.368 22.2223C195.711 21.1768 194.452 20.4799 193.018 20.4799C191.89 20.4799 190.938 20.861 190.16 21.6342C189.383 22.4074 189 23.3439 189 24.4547C189 25.5654 189.394 26.502 190.171 27.2643C190.96 28.0266 191.945 28.4077 193.138 28.4077C194.233 28.4077 195.131 28.0701 195.842 27.3949C196.554 26.7089 196.915 25.805 196.915 24.6616V24.0082H193.073Z" fill="#44A1A0"/>
<path d="M205.478 27.2643C206.256 26.502 206.639 25.5654 206.639 24.4438C206.639 23.3221 206.256 22.3856 205.478 21.6233C204.701 20.861 203.76 20.4799 202.654 20.4799C201.548 20.4799 200.607 20.861 199.829 21.6233C199.052 22.3856 198.669 23.3221 198.669 24.4438C198.669 25.5654 199.052 26.502 199.829 27.2643C200.607 28.0266 201.548 28.4077 202.654 28.4077C203.76 28.4077 204.701 28.0266 205.478 27.2643ZM201.056 26.0773C200.629 25.6526 200.421 25.1081 200.421 24.4438C200.421 23.7795 200.629 23.235 201.056 22.8103C201.482 22.3856 202.019 22.1787 202.654 22.1787C203.289 22.1787 203.814 22.3856 204.241 22.8103C204.668 23.235 204.887 23.7795 204.887 24.4438C204.887 25.1081 204.668 25.6526 204.241 26.0773C203.814 26.502 203.289 26.7089 202.654 26.7089C202.019 26.7089 201.482 26.502 201.056 26.0773Z" fill="#44A1A0"/>
<path d="M208.612 25.7941C208.612 26.5891 208.885 27.2316 209.444 27.6999C210.002 28.1681 210.703 28.4077 211.567 28.4077C212.432 28.4077 213.133 28.1681 213.691 27.6999C214.25 27.2316 214.523 26.5891 214.523 25.7941V20.6323H212.772V25.6417C212.772 26.3495 212.367 26.7089 211.567 26.7089C210.768 26.7089 210.363 26.3495 210.363 25.6417V20.6323H208.612V25.7941Z" fill="#44A1A0"/>
<path d="M220.954 28.2552L223.45 20.6323H221.534L219.837 26.2406L218.14 20.6323H216.224L218.721 28.2552H220.954Z" fill="#44A1A0"/>
<path d="M226.955 25.2279H229.692V23.5726H226.955V22.3094H229.965V20.6323H225.203V28.2552H230.02V26.5782H226.955V25.2279Z" fill="#44A1A0"/>
<path d="M238.015 28.2552L236.384 25.4565C237.227 25.021 237.796 24.1715 237.796 23.2459C237.796 22.5163 237.544 21.9065 237.03 21.3946C236.515 20.8828 235.902 20.6323 235.169 20.6323H232.103V28.2552H233.855V25.7506H234.687L236.132 28.2552H238.015ZM235.169 22.2658C235.65 22.2658 236.044 22.6905 236.044 23.2459C236.044 23.8013 235.65 24.226 235.169 24.226H233.855V22.2658H235.169Z" fill="#44A1A0"/>
<path d="M244.203 24.7705L241.247 20.6323H239.933V28.2552H241.685V24.1171L244.641 28.2552H245.954V20.6323H244.203V24.7705Z" fill="#44A1A0"/>
<path d="M255.15 28.2552L252.544 20.6323H250.311L247.705 28.2552H249.621L250.004 27.0574H252.851L253.234 28.2552H255.15ZM251.427 22.6252L252.325 25.4239H250.53L251.427 22.6252Z" fill="#44A1A0"/>
<path d="M261.167 24.7705L258.212 20.6323H256.898V28.2552H258.649V24.1171L261.605 28.2552H262.919V20.6323H261.167V24.7705Z" fill="#44A1A0"/>
<path d="M268.983 28.4077C270.373 28.4077 271.611 27.7325 272.267 26.6435L270.757 25.7724C270.439 26.3495 269.76 26.7089 268.983 26.7089C268.304 26.7089 267.757 26.502 267.352 26.0882C266.947 25.6743 266.75 25.1299 266.75 24.4438C266.75 23.7577 266.947 23.2132 267.352 22.7994C267.757 22.3856 268.304 22.1787 268.983 22.1787C269.76 22.1787 270.417 22.5163 270.757 23.1152L272.267 22.244C271.6 21.1551 270.352 20.4799 268.983 20.4799C267.834 20.4799 266.881 20.861 266.126 21.6233C265.37 22.3747 264.998 23.3221 264.998 24.4438C264.998 25.5654 265.37 26.5129 266.126 27.2752C266.881 28.0266 267.834 28.4077 268.983 28.4077Z" fill="#44A1A0"/>
<path d="M275.935 25.2279H278.672V23.5726H275.935V22.3094H278.945V20.6323H274.183V28.2552H279V26.5782H275.935V25.2279Z" fill="#44A1A0"/>
<path d="M189.328 34.2447V41.8676H192.394C193.456 41.8676 194.331 41.5082 195.043 40.7786C195.755 40.049 196.116 39.1342 196.116 38.0561C196.116 36.978 195.755 36.0742 195.043 35.3445C194.331 34.6149 193.456 34.2447 192.394 34.2447H189.328ZM191.08 40.1905V35.9217H192.394C192.996 35.9217 193.489 36.1177 193.861 36.5098C194.244 36.8909 194.43 37.4136 194.43 38.0561C194.43 38.6986 194.244 39.2213 193.861 39.6134C193.489 39.9945 192.996 40.1905 192.394 40.1905H191.08Z" fill="#44A1A0"/>
<path d="M198.196 41.8676H199.947V34.2447H198.196V41.8676Z" fill="#44A1A0"/>
<path d="M206.103 37.6205V39.1451H208.15C207.854 39.9292 207.208 40.3212 206.19 40.3212C205.457 40.3212 204.877 40.1143 204.439 39.7005C204.001 39.2758 203.782 38.7422 203.782 38.0779C203.782 37.4136 203.99 36.8582 204.417 36.4335C204.844 36.0088 205.391 35.791 206.037 35.791C206.869 35.791 207.57 36.1613 207.909 36.684L209.398 35.8346C208.741 34.7892 207.482 34.0922 206.048 34.0922C204.92 34.0922 203.968 34.4734 203.191 35.2465C202.413 36.0197 202.03 36.9562 202.03 38.067C202.03 39.1778 202.424 40.1143 203.202 40.8766C203.99 41.6389 204.975 42.02 206.168 42.02C207.263 42.02 208.161 41.6824 208.872 41.0073C209.584 40.3212 209.945 39.4173 209.945 38.2739V37.6205H206.103Z" fill="#44A1A0"/>
<path d="M212.028 41.8676H213.779V34.2447H212.028V41.8676Z" fill="#44A1A0"/>
<path d="M215.643 34.2447V35.9217H217.614V41.8676H219.365V35.9217H221.336V34.2447H215.643Z" fill="#44A1A0"/>
<path d="M229.44 41.8676L226.834 34.2447H224.601L221.995 41.8676H223.911L224.294 40.6697H227.141L227.524 41.8676H229.44ZM225.718 36.2375L226.615 39.0362H224.82L225.718 36.2375Z" fill="#44A1A0"/>
<path d="M232.94 34.2447H231.188V41.8676H235.677V40.1905H232.94V34.2447Z" fill="#44A1A0"/>
<path d="M239.294 38.8402H242.031V37.1849H239.294V35.9217H242.305V34.2447H237.543V41.8676H242.36V40.1905H239.294V38.8402Z" fill="#44A1A0"/>
</svg>
