<svg width="149" height="50" viewBox="0 0 149 50" fill="none" xmlns="http://www.w3.org/2000/svg">
<path d="M25.7404 14.0001H14.8513V35.63H25.7404C31.7543 35.63 36.6295 30.788 36.6295 24.815C36.6295 18.8421 31.7543 14.0001 25.7404 14.0001ZM21.1878 18.2832C21.2569 18.0714 21.4494 17.9163 21.6873 17.9119C23.0653 17.8868 24.4434 17.8669 25.8214 17.8484C25.9218 17.8469 26.0266 17.858 26.1232 17.8861C26.3796 17.9606 26.5305 18.2183 26.4882 18.487C26.4465 18.7535 26.2169 18.9344 25.9255 18.9388C25.2186 18.9491 22.415 18.9816 21.72 18.9868C21.3275 18.989 21.0711 18.6413 21.1878 18.2832ZM19.9681 20.117C20.0543 20.0956 20.1457 20.0904 20.2349 20.0882C21.1826 20.0705 24.9852 19.9989 25.9374 20.0225C26.9036 20.0461 27.7718 20.399 28.5456 20.9726C28.7998 21.1608 28.8488 21.4923 28.6704 21.7322C28.4906 21.9744 28.165 22.029 27.9041 21.84C27.3496 21.4384 26.7386 21.1837 26.0563 21.1092C25.8482 21.0863 25.6371 21.0848 25.4275 21.0878C23.712 21.1143 21.9972 21.1446 20.2817 21.1712C20.1747 21.1726 20.064 21.1719 19.9606 21.1476C19.7317 21.0929 19.5674 20.8655 19.5689 20.6293C19.5712 20.3901 19.7347 20.1738 19.9681 20.117ZM19.0494 22.2697C19.1088 22.266 19.169 22.266 19.2293 22.2652C20.2966 22.2475 21.3647 22.2298 22.4321 22.2113C23.4637 22.1944 24.4954 22.1737 25.5271 22.1604C26.9252 22.1427 28.0305 23.0433 28.2936 24.4075C28.582 25.9017 27.3957 27.4468 25.8653 27.5243C25.1242 27.562 24.3787 27.5243 23.6354 27.5044C23.2809 27.4948 23.0691 27.2541 23.0876 26.9308C23.1055 26.62 23.3589 26.4192 23.7105 26.4273C24.3639 26.4414 25.0179 26.4642 25.6713 26.4576C26.3551 26.4502 26.9349 26.0132 27.1526 25.3776C27.3734 24.7346 27.1742 24.0311 26.6457 23.6021C26.315 23.3334 25.9322 23.233 25.5078 23.2412C23.4206 23.2803 21.3335 23.3128 19.2456 23.3475C19.1795 23.3482 19.1133 23.3526 19.0479 23.3482C18.7409 23.3275 18.5194 23.0942 18.5231 22.7982C18.5269 22.5081 18.7454 22.2888 19.0494 22.2697ZM21.9735 25.4507C21.6078 25.4566 21.3669 25.2454 21.3617 24.9206C21.3565 24.5958 21.5899 24.3795 21.9571 24.3729C22.5562 24.3618 23.1553 24.3522 23.7551 24.3426C24.3542 24.3323 24.9533 24.3219 25.5531 24.3131C25.9173 24.3079 26.1604 24.5198 26.1656 24.8431C26.17 25.1679 25.9374 25.3842 25.5695 25.3909C24.3705 25.4115 23.1724 25.4315 21.9735 25.4507ZM19.0702 24.4245C19.285 24.4135 19.5013 24.4112 19.7161 24.4208C20.0461 24.4356 20.2684 24.6733 20.2594 24.9856C20.2513 25.2757 20.0216 25.4883 19.7042 25.4994C19.6083 25.5023 19.1891 25.5031 19.0761 25.4972C18.7907 25.4817 18.561 25.2344 18.564 24.9546C18.5677 24.6785 18.7892 24.4393 19.0702 24.4245ZM18.5967 27.1227C18.5915 26.809 18.8279 26.5787 19.175 26.5713C19.8276 26.5573 20.4809 26.5462 21.1343 26.5381C21.4777 26.5336 21.7267 26.7603 21.7319 27.0703C21.7371 27.3863 21.5059 27.6078 21.1521 27.6173C20.8229 27.6262 20.4928 27.6292 20.1636 27.6343C19.8402 27.6395 19.5169 27.6476 19.1928 27.6498C18.8405 27.6528 18.6019 27.438 18.5967 27.1227ZM20.2223 29.7877C19.9287 29.756 19.7183 29.5345 19.7154 29.2562C19.7124 28.9772 19.9175 28.7513 20.2104 28.7151C20.2817 28.7062 20.3538 28.707 20.4259 28.7055C22.1533 28.676 23.8815 28.6509 25.6089 28.6176C27.3466 28.5844 28.7656 27.5413 29.2487 25.9423C29.4828 25.1672 29.4605 24.3935 29.2086 23.6221C29.1632 23.4826 29.1498 23.3142 29.1803 23.1725C29.2294 22.9459 29.442 22.8137 29.6783 22.8108C29.9177 22.8078 30.1102 22.9392 30.1994 23.1762C30.4134 23.7461 30.5175 24.3367 30.4974 24.9442C30.4231 27.1973 28.9402 29.0303 26.7424 29.5633C26.3729 29.6526 25.9842 29.6859 25.6029 29.7006C24.8121 29.7316 24.0197 29.7324 23.2274 29.7457C22.2916 29.7612 21.3558 29.7774 20.42 29.7922C20.3538 29.7922 20.2877 29.7944 20.2223 29.7877ZM29.1053 30.9386C28.5946 31.2324 28.0572 31.4775 27.4819 31.6008C26.9274 31.7197 26.3611 31.8215 25.7969 31.8452C24.5266 31.8983 23.2541 31.8998 21.9824 31.9182C21.5624 31.9242 21.2889 31.5853 21.4056 31.2147C21.4777 30.9873 21.6709 30.8463 21.9385 30.8412C22.6521 30.8264 25.4476 30.7799 26.1299 30.7445C26.9683 30.7002 27.7488 30.4388 28.4891 30.0483C28.6065 29.9863 28.7462 29.9376 28.8763 29.9339C29.1119 29.9273 29.3119 30.1052 29.3721 30.3296C29.4345 30.5636 29.3342 30.8065 29.1053 30.9386ZM32.6663 24.976C32.6448 26.5573 32.1208 27.9732 31.1322 29.2171C31.0177 29.361 30.8772 29.4489 30.6676 29.4548C30.4736 29.4533 30.3027 29.364 30.2031 29.1735C30.0946 28.9653 30.1124 28.7564 30.2603 28.5704C30.6037 28.1378 30.8899 27.6727 31.1084 27.1656C32.3928 24.1846 30.985 20.6921 27.9814 19.4112C27.9487 19.3972 27.9145 19.3847 27.8818 19.3699C27.551 19.226 27.4135 18.927 27.5429 18.6339C27.6692 18.3467 27.9755 18.2389 28.3003 18.3718C29.1766 18.7306 29.9533 19.24 30.6156 19.9132C31.9996 21.3196 32.6931 23.0116 32.6663 24.976Z" fill="#03CEA4"/>
<path d="M47 21.5534C46.4922 22.213 46.1958 23.008 46.1447 23.8368L46.1413 23.8774C46.1413 24.1987 45.9061 24.4626 45.6165 24.4626H42.2225C41.9328 24.4626 41.6977 24.2021 41.6977 23.8774L41.6943 23.8402C41.6432 23.0012 41.3229 22.1995 40.7776 21.5534V23.8841C40.7776 24.7197 41.3876 25.3962 42.1407 25.3962H42.3622L42.3997 25.8529C42.4235 26.1337 42.5598 26.3908 42.7711 26.5836C43.0676 26.8508 43.2584 27.277 43.2584 27.754C43.2584 27.7811 43.2584 27.8081 43.255 27.8352C43.2448 28.0551 43.4186 28.2411 43.6401 28.2411H44.1342C44.3557 28.2411 44.5295 28.0551 44.5192 27.8352C44.5192 27.8081 44.5158 27.7811 44.5158 27.754C44.5158 27.277 44.7066 26.8508 45.0031 26.5836C45.2144 26.3941 45.3507 26.1337 45.3745 25.8529L45.412 25.3962H45.6335C46.3866 25.3962 46.9966 24.7197 46.9966 23.8841L47 21.5534Z" fill="#FF7467"/>
<path d="M41.6193 25.6331C41.4114 25.8394 41.3228 26.1236 41.3467 26.4179C41.6431 26.4415 41.9294 26.3536 42.1373 26.1472C42.3451 25.9409 42.4337 25.6568 42.4099 25.3625C42.1168 25.3388 41.8272 25.4267 41.6193 25.6331Z" fill="#FF7467"/>
<path d="M45.3882 25.3625C45.3644 25.6568 45.453 25.9409 45.6609 26.1472C45.8687 26.3536 46.155 26.4415 46.4514 26.4179C46.4753 26.1236 46.3867 25.8394 46.1788 25.6331C45.9744 25.4267 45.6847 25.3388 45.3882 25.3625Z" fill="#FF7467"/>
<path d="M15.5386 5.21346C15.5012 6.12844 15.0528 6.9445 14.3802 7.47618C14.2557 7.5751 14.1187 7.67402 13.9692 7.7482C13.471 8.03259 12.8981 8.18096 12.2877 8.14387C10.5689 8.06968 9.2486 6.62302 9.32333 4.92907C9.3607 4.00173 9.82155 3.18567 10.5066 2.64162C10.6187 2.55507 10.7308 2.48089 10.8554 2.4067C11.3536 2.10995 11.9514 1.96157 12.5742 1.9863C14.2931 2.06049 15.6258 3.50715 15.5386 5.21346Z" fill="#03CEA4"/>
<path d="M45.9017 12.6678C45.8276 14.3606 44.3819 15.6608 42.6767 15.5872C41.787 15.5504 41.0086 15.1456 40.4772 14.52C40.366 14.3728 40.2672 14.2134 40.156 14.0662C36.7703 9.50306 31.4075 6.43646 25.254 6.15433C24.6856 6.1298 24.1172 6.1298 23.5612 6.14206C23.3758 6.15433 23.2028 6.15433 23.0175 6.1666C23.0051 6.1666 22.9928 6.1666 22.9804 6.1666C21.2752 6.093 19.9654 4.65783 20.0396 2.96506C20.1137 1.43176 21.2999 0.217388 22.7951 0.0579248C22.9063 0.0456584 23.0051 0.0456584 23.1163 0.0456584C23.2399 0.0456584 23.3511 0.033392 23.4747 0.033392C24.1543 0.00885918 24.8462 0.0211256 25.5382 0.0456584C33.4834 0.413651 40.4278 4.31437 44.8885 10.1532C45.0121 10.3126 45.1233 10.4598 45.2345 10.6193L45.2468 10.6316C45.2963 10.6929 45.3457 10.7665 45.3951 10.8401C45.7411 11.3676 45.9264 11.9931 45.9017 12.6678Z" fill="#44A1A0"/>
<path d="M45.9017 36.3722C45.8276 34.6795 44.3819 33.3792 42.6767 33.4528C41.787 33.4896 41.0086 33.8944 40.4772 34.52C40.366 34.6672 40.2672 34.8267 40.156 34.9739C36.7703 39.537 31.4075 42.6036 25.254 42.8857C24.6856 42.9102 24.1172 42.9102 23.5612 42.898C23.3758 42.8857 23.2028 42.8857 23.0175 42.8734C23.0051 42.8734 22.9928 42.8734 22.9804 42.8734C21.2752 42.947 19.9654 44.3822 20.0396 46.075C20.1137 47.6083 21.2999 48.8227 22.7951 48.9821C22.9063 48.9944 23.0051 48.9944 23.1163 48.9944C23.2399 48.9944 23.3511 49.0066 23.4747 49.0066C24.1543 49.0312 24.8462 49.0189 25.5382 48.9944C33.4834 48.6264 40.4278 44.7257 44.8885 38.8869C45.0121 38.7274 45.1233 38.5802 45.2345 38.4207L45.2468 38.4085C45.2963 38.3471 45.3457 38.2735 45.3951 38.1999C45.7411 37.6725 45.9264 37.0469 45.9017 36.3722Z" fill="#44A1A0"/>
<path d="M9.86194 35.8093C9.71049 37.497 8.20683 38.7307 6.50732 38.5681C5.52206 38.4745 4.68099 37.9331 4.18441 37.1616C4.1384 37.0859 4.09239 37.0101 4.05872 36.9349C1.52589 32.5475 0.27904 27.3585 0.774892 21.929C1.08677 18.6277 2.00798 15.5259 3.43473 12.7293C3.99185 11.637 5.17403 10.9413 6.46732 11.0611C8.15505 11.211 9.41023 12.7043 9.247 14.3792C9.21783 14.7462 9.11516 15.0977 8.9648 15.4101C8.93843 15.4458 8.92384 15.4943 8.89747 15.5299C8.8711 15.5655 8.85652 15.614 8.84249 15.6502C7.80623 17.7523 7.13188 20.0548 6.90919 22.4883C6.52271 26.6089 7.46824 30.5441 9.39339 33.8849C9.4394 33.9607 9.48541 34.0364 9.51908 34.1116C9.79234 34.6274 9.91411 35.21 9.86194 35.8093Z" fill="#03CEA4"/>
<path d="M15.4862 44.34C15.4121 46.0328 13.9664 47.333 12.2612 47.2594C10.7784 47.1858 9.5798 46.0941 9.35738 44.6835C9.33267 44.5118 9.32031 44.34 9.32031 44.156C9.32031 44.1192 9.32031 44.0824 9.32031 44.0456C9.39445 42.3529 10.8402 41.0527 12.5454 41.1263C14.0652 41.1999 15.2762 42.3406 15.4615 43.7881V43.8003C15.4739 43.9107 15.4862 44.0088 15.4862 44.1192C15.4862 44.2051 15.4862 44.2664 15.4862 44.34Z" fill="#03CEA4"/>
<path d="M59.2737 12.1818C59.2737 12.9768 59.5474 13.6193 60.1057 14.0875C60.664 14.5558 61.3647 14.7954 62.2295 14.7954C63.0944 14.7954 63.7951 14.5558 64.3534 14.0875C64.9117 13.6193 65.1854 12.9768 65.1854 12.1818V7.02002H63.4338V12.0294C63.4338 12.7372 63.0287 13.0966 62.2295 13.0966C61.4304 13.0966 61.0253 12.7372 61.0253 12.0294V7.02002H59.2737V12.1818Z" fill="#44A1A0"/>
<path d="M71.813 11.1582L68.8571 7.02002H67.5434V14.6429H69.295V10.5048L72.2509 14.6429H73.5646V7.02002H71.813V11.1582Z" fill="#44A1A0"/>
<path d="M75.9722 14.6429H77.7238V7.02002H75.9722V14.6429Z" fill="#44A1A0"/>
<path d="M79.5879 7.02002V8.69706H81.5585V14.6429H83.3101V8.69706H85.2807V7.02002H79.5879Z" fill="#44A1A0"/>
<path d="M88.8938 11.6155H91.6307V9.96028H88.8938V8.69706H91.9044V7.02002H87.1422V14.6429H91.9591V12.9659H88.8938V11.6155Z" fill="#44A1A0"/>
<path d="M97.8738 7.02002V14.6429H100.939C102.001 14.6429 102.877 14.2836 103.588 13.5539C104.3 12.8243 104.661 11.9096 104.661 10.8315C104.661 9.75337 104.3 8.84952 103.588 8.1199C102.877 7.39028 102.001 7.02002 100.939 7.02002H97.8738ZM99.6254 12.9659V8.69706H100.939C101.541 8.69706 102.034 8.89308 102.406 9.28511C102.789 9.66626 102.975 10.189 102.975 10.8315C102.975 11.474 102.789 11.9967 102.406 12.3887C102.034 12.7699 101.541 12.9659 100.939 12.9659H99.6254Z" fill="#44A1A0"/>
<path d="M108.493 11.6155H111.229V9.96028H108.493V8.69706H111.503V7.02002H106.741V14.6429H111.558V12.9659H108.493V11.6155Z" fill="#44A1A0"/>
<path d="M63.0725 24.0082V25.5328H65.1197C64.8241 26.3168 64.1782 26.7089 63.1601 26.7089C62.4266 26.7089 61.8464 26.502 61.4085 26.0882C60.9706 25.6635 60.7516 25.1299 60.7516 24.4656C60.7516 23.8013 60.9596 23.2459 61.3866 22.8212C61.8135 22.3965 62.3609 22.1787 63.0068 22.1787C63.8388 22.1787 64.5395 22.549 64.8789 23.0717L66.3677 22.2223C65.7109 21.1768 64.4519 20.4799 63.0178 20.4799C61.8902 20.4799 60.9377 20.861 60.1604 21.6342C59.3832 22.4074 59 23.3439 59 24.4547C59 25.5654 59.3941 26.502 60.1714 27.2643C60.9596 28.0266 61.9449 28.4077 63.1382 28.4077C64.233 28.4077 65.1307 28.0701 65.8423 27.3949C66.5538 26.7089 66.9151 25.805 66.9151 24.6616V24.0082H63.0725Z" fill="#44A1A0"/>
<path d="M75.4784 27.2643C76.2556 26.502 76.6388 25.5654 76.6388 24.4438C76.6388 23.3221 76.2556 22.3856 75.4784 21.6233C74.7011 20.861 73.7596 20.4799 72.6539 20.4799C71.5482 20.4799 70.6067 20.861 69.8294 21.6233C69.0521 22.3856 68.669 23.3221 68.669 24.4438C68.669 25.5654 69.0521 26.502 69.8294 27.2643C70.6067 28.0266 71.5482 28.4077 72.6539 28.4077C73.7596 28.4077 74.7011 28.0266 75.4784 27.2643ZM71.0555 26.0773C70.6286 25.6526 70.4206 25.1081 70.4206 24.4438C70.4206 23.7795 70.6286 23.235 71.0555 22.8103C71.4825 22.3856 72.0189 22.1787 72.6539 22.1787C73.2888 22.1787 73.8143 22.3856 74.2413 22.8103C74.6682 23.235 74.8872 23.7795 74.8872 24.4438C74.8872 25.1081 74.6682 25.6526 74.2413 26.0773C73.8143 26.502 73.2888 26.7089 72.6539 26.7089C72.0189 26.7089 71.4825 26.502 71.0555 26.0773Z" fill="#44A1A0"/>
<path d="M78.6116 25.7941C78.6116 26.5891 78.8853 27.2316 79.4436 27.6999C80.002 28.1681 80.7026 28.4077 81.5675 28.4077C82.4323 28.4077 83.133 28.1681 83.6913 27.6999C84.2496 27.2316 84.5233 26.5891 84.5233 25.7941V20.6323H82.7717V25.6417C82.7717 26.3495 82.3666 26.7089 81.5675 26.7089C80.7683 26.7089 80.3632 26.3495 80.3632 25.6417V20.6323H78.6116V25.7941Z" fill="#44A1A0"/>
<path d="M90.9538 28.2552L93.4499 20.6323H91.5341L89.8372 26.2406L88.1403 20.6323H86.2245L88.7205 28.2552H90.9538Z" fill="#44A1A0"/>
<path d="M96.9548 25.2279H99.6917V23.5726H96.9548V22.3094H99.9654V20.6323H95.2032V28.2552H100.02V26.5782H96.9548V25.2279Z" fill="#44A1A0"/>
<path d="M108.015 28.2552L106.384 25.4565C107.227 25.021 107.796 24.1715 107.796 23.2459C107.796 22.5163 107.544 21.9065 107.03 21.3946C106.515 20.8828 105.902 20.6323 105.169 20.6323H102.103V28.2552H103.855V25.7506H104.687L106.132 28.2552H108.015ZM105.169 22.2658C105.65 22.2658 106.044 22.6905 106.044 23.2459C106.044 23.8013 105.65 24.226 105.169 24.226H103.855V22.2658H105.169Z" fill="#44A1A0"/>
<path d="M114.203 24.7705L111.247 20.6323H109.933V28.2552H111.685V24.1171L114.641 28.2552H115.954V20.6323H114.203V24.7705Z" fill="#44A1A0"/>
<path d="M125.15 28.2552L122.544 20.6323H120.311L117.705 28.2552H119.621L120.004 27.0574H122.851L123.234 28.2552H125.15ZM121.427 22.6252L122.325 25.4239H120.53L121.427 22.6252Z" fill="#44A1A0"/>
<path d="M131.167 24.7705L128.212 20.6323H126.898V28.2552H128.649V24.1171L131.605 28.2552H132.919V20.6323H131.167V24.7705Z" fill="#44A1A0"/>
<path d="M138.983 28.4077C140.373 28.4077 141.611 27.7325 142.267 26.6435L140.757 25.7724C140.439 26.3495 139.76 26.7089 138.983 26.7089C138.304 26.7089 137.757 26.502 137.352 26.0882C136.947 25.6743 136.75 25.1299 136.75 24.4438C136.75 23.7577 136.947 23.2132 137.352 22.7994C137.757 22.3856 138.304 22.1787 138.983 22.1787C139.76 22.1787 140.417 22.5163 140.757 23.1152L142.267 22.244C141.6 21.1551 140.352 20.4799 138.983 20.4799C137.834 20.4799 136.881 20.861 136.126 21.6233C135.37 22.3747 134.998 23.3221 134.998 24.4438C134.998 25.5654 135.37 26.5129 136.126 27.2752C136.881 28.0266 137.834 28.4077 138.983 28.4077Z" fill="#44A1A0"/>
<path d="M145.935 25.2279H148.672V23.5726H145.935V22.3094H148.945V20.6323H144.183V28.2552H149V26.5782H145.935V25.2279Z" fill="#44A1A0"/>
<path d="M59.3284 34.2447V41.8676H62.3938C63.4557 41.8676 64.3315 41.5082 65.0431 40.7786C65.7547 40.049 66.1159 39.1342 66.1159 38.0561C66.1159 36.978 65.7547 36.0742 65.0431 35.3445C64.3315 34.6149 63.4557 34.2447 62.3938 34.2447H59.3284ZM61.08 40.1905V35.9217H62.3938C62.9959 35.9217 63.4885 36.1177 63.8607 36.5098C64.2439 36.8909 64.43 37.4136 64.43 38.0561C64.43 38.6986 64.2439 39.2213 63.8607 39.6134C63.4885 39.9945 62.9959 40.1905 62.3938 40.1905H61.08Z" fill="#44A1A0"/>
<path d="M68.1956 41.8676H69.9472V34.2447H68.1956V41.8676Z" fill="#44A1A0"/>
<path d="M76.1027 37.6205V39.1451H78.1499C77.8543 39.9292 77.2084 40.3212 76.1903 40.3212C75.4568 40.3212 74.8766 40.1143 74.4387 39.7005C74.0008 39.2758 73.7818 38.7422 73.7818 38.0779C73.7818 37.4136 73.9898 36.8582 74.4168 36.4335C74.8438 36.0088 75.3911 35.791 76.037 35.791C76.8691 35.791 77.5697 36.1613 77.9091 36.684L79.398 35.8346C78.7411 34.7892 77.4821 34.0922 76.048 34.0922C74.9204 34.0922 73.9679 34.4734 73.1907 35.2465C72.4134 36.0197 72.0302 36.9562 72.0302 38.067C72.0302 39.1778 72.4243 40.1143 73.2016 40.8766C73.9898 41.6389 74.9751 42.02 76.1684 42.02C77.2632 42.02 78.1609 41.6824 78.8725 41.0073C79.5841 40.3212 79.9453 39.4173 79.9453 38.2739V37.6205H76.1027Z" fill="#44A1A0"/>
<path d="M82.0276 41.8676H83.7792V34.2447H82.0276V41.8676Z" fill="#44A1A0"/>
<path d="M85.6433 34.2447V35.9217H87.6139V41.8676H89.3655V35.9217H91.3361V34.2447H85.6433Z" fill="#44A1A0"/>
<path d="M99.4399 41.8676L96.8343 34.2447H94.601L91.9955 41.8676H93.9113L94.2945 40.6697H97.1409L97.524 41.8676H99.4399ZM95.7177 36.2375L96.6154 39.0362H94.82L95.7177 36.2375Z" fill="#44A1A0"/>
<path d="M102.94 34.2447H101.188V41.8676H105.677V40.1905H102.94V34.2447Z" fill="#44A1A0"/>
<path d="M109.294 38.8402H112.031V37.1849H109.294V35.9217H112.305V34.2447H107.543V41.8676H112.36V40.1905H109.294V38.8402Z" fill="#44A1A0"/>
</svg>
